%TF.GenerationSoftware,KiCad,Pcbnew,(6.0.9)*%
%TF.CreationDate,2023-01-15T10:52:55+01:00*%
%TF.ProjectId,led_driver,6c65645f-6472-4697-9665-722e6b696361,rev?*%
%TF.SameCoordinates,Original*%
%TF.FileFunction,Copper,L2,Bot*%
%TF.FilePolarity,Positive*%
%FSLAX46Y46*%
G04 Gerber Fmt 4.6, Leading zero omitted, Abs format (unit mm)*
G04 Created by KiCad (PCBNEW (6.0.9)) date 2023-01-15 10:52:55*
%MOMM*%
%LPD*%
G01*
G04 APERTURE LIST*
G04 Aperture macros list*
%AMRoundRect*
0 Rectangle with rounded corners*
0 $1 Rounding radius*
0 $2 $3 $4 $5 $6 $7 $8 $9 X,Y pos of 4 corners*
0 Add a 4 corners polygon primitive as box body*
4,1,4,$2,$3,$4,$5,$6,$7,$8,$9,$2,$3,0*
0 Add four circle primitives for the rounded corners*
1,1,$1+$1,$2,$3*
1,1,$1+$1,$4,$5*
1,1,$1+$1,$6,$7*
1,1,$1+$1,$8,$9*
0 Add four rect primitives between the rounded corners*
20,1,$1+$1,$2,$3,$4,$5,0*
20,1,$1+$1,$4,$5,$6,$7,0*
20,1,$1+$1,$6,$7,$8,$9,0*
20,1,$1+$1,$8,$9,$2,$3,0*%
G04 Aperture macros list end*
%TA.AperFunction,ComponentPad*%
%ADD10R,2.400000X2.400000*%
%TD*%
%TA.AperFunction,ComponentPad*%
%ADD11C,2.400000*%
%TD*%
%TA.AperFunction,ConnectorPad*%
%ADD12C,4.700000*%
%TD*%
%TA.AperFunction,ComponentPad*%
%ADD13C,3.100000*%
%TD*%
%TA.AperFunction,ComponentPad*%
%ADD14RoundRect,0.250000X-0.750000X-1.550000X0.750000X-1.550000X0.750000X1.550000X-0.750000X1.550000X0*%
%TD*%
%TA.AperFunction,ComponentPad*%
%ADD15O,2.000000X3.600000*%
%TD*%
%TA.AperFunction,ComponentPad*%
%ADD16RoundRect,0.250000X0.750000X1.550000X-0.750000X1.550000X-0.750000X-1.550000X0.750000X-1.550000X0*%
%TD*%
%TA.AperFunction,ComponentPad*%
%ADD17RoundRect,0.250000X1.550000X-0.750000X1.550000X0.750000X-1.550000X0.750000X-1.550000X-0.750000X0*%
%TD*%
%TA.AperFunction,ComponentPad*%
%ADD18O,3.600000X2.000000*%
%TD*%
%TA.AperFunction,ComponentPad*%
%ADD19R,2.000000X2.000000*%
%TD*%
%TA.AperFunction,ComponentPad*%
%ADD20O,2.000000X1.600000*%
%TD*%
%TA.AperFunction,ViaPad*%
%ADD21C,0.800000*%
%TD*%
%TA.AperFunction,Conductor*%
%ADD22C,0.250000*%
%TD*%
G04 APERTURE END LIST*
D10*
%TO.P,C5,1*%
%TO.N,VCC*%
X136084785Y-77600000D03*
D11*
%TO.P,C5,2*%
%TO.N,GND*%
X141084785Y-77600000D03*
%TD*%
D12*
%TO.P,H1,1*%
%TO.N,N/C*%
X93575000Y-73525000D03*
D13*
X93575000Y-73525000D03*
%TD*%
D14*
%TO.P,J1,1,Pin_1*%
%TO.N,LED1-*%
X153050000Y-76050000D03*
D15*
%TO.P,J1,2,Pin_2*%
%TO.N,LED1+*%
X158050000Y-76050000D03*
%TO.P,J1,3,Pin_3*%
%TO.N,LED2-*%
X163050000Y-76050000D03*
%TO.P,J1,4,Pin_4*%
%TO.N,LED2+*%
X168050000Y-76050000D03*
%TD*%
D12*
%TO.P,H2,1*%
%TO.N,N/C*%
X185800000Y-138400000D03*
D13*
X185800000Y-138400000D03*
%TD*%
D10*
%TO.P,C4,1*%
%TO.N,VCC*%
X122084785Y-77600000D03*
D11*
%TO.P,C4,2*%
%TO.N,GND*%
X127084785Y-77600000D03*
%TD*%
D12*
%TO.P,H4,1*%
%TO.N,N/C*%
X186800000Y-73100000D03*
D13*
X186800000Y-73100000D03*
%TD*%
D12*
%TO.P,H3,1*%
%TO.N,N/C*%
X93100000Y-138500000D03*
D13*
X93100000Y-138500000D03*
%TD*%
D16*
%TO.P,J2,1,Pin_1*%
%TO.N,LED4+*%
X168100000Y-134925000D03*
D15*
%TO.P,J2,2,Pin_2*%
%TO.N,LED4-*%
X163100000Y-134925000D03*
%TO.P,J2,3,Pin_3*%
%TO.N,LED3+*%
X158100000Y-134925000D03*
%TO.P,J2,4,Pin_4*%
%TO.N,LED3-*%
X153100000Y-134925000D03*
%TD*%
D17*
%TO.P,J3,1,Pin_1*%
%TO.N,GND*%
X95700000Y-90900000D03*
D18*
%TO.P,J3,2,Pin_2*%
%TO.N,VCC*%
X95700000Y-85900000D03*
%TD*%
D19*
%TO.P,U2,1,~{RST}*%
%TO.N,unconnected-(U2-Pad1)*%
X94530000Y-110560000D03*
D20*
%TO.P,U2,2,A0*%
%TO.N,unconnected-(U2-Pad2)*%
X94530000Y-113100000D03*
%TO.P,U2,3,D0*%
%TO.N,unconnected-(U2-Pad3)*%
X94530000Y-115640000D03*
%TO.P,U2,4,SCK/D5*%
%TO.N,unconnected-(U2-Pad4)*%
X94530000Y-118180000D03*
%TO.P,U2,5,MISO/D6*%
%TO.N,unconnected-(U2-Pad5)*%
X94530000Y-120720000D03*
%TO.P,U2,6,MOSI/D7*%
%TO.N,unconnected-(U2-Pad6)*%
X94530000Y-123260000D03*
%TO.P,U2,7,CS/D8*%
%TO.N,unconnected-(U2-Pad7)*%
X94530000Y-125800000D03*
%TO.P,U2,8,3V3*%
%TO.N,unconnected-(U2-Pad8)*%
X94530000Y-128340000D03*
%TO.P,U2,9,5V*%
%TO.N,+5V*%
X117390000Y-128340000D03*
%TO.P,U2,10,GND*%
%TO.N,GND*%
X117390000Y-125800000D03*
%TO.P,U2,11,D4*%
%TO.N,PWM4*%
X117390000Y-123260000D03*
%TO.P,U2,12,D3*%
%TO.N,PWM3*%
X117390000Y-120720000D03*
%TO.P,U2,13,SDA/D2*%
%TO.N,PWM2*%
X117390000Y-118180000D03*
%TO.P,U2,14,SCL/D1*%
%TO.N,PWM1*%
X117390000Y-115640000D03*
%TO.P,U2,15,RX*%
%TO.N,unconnected-(U2-Pad15)*%
X117390000Y-113100000D03*
%TO.P,U2,16,TX*%
%TO.N,unconnected-(U2-Pad16)*%
X117390000Y-110560000D03*
%TD*%
D21*
%TO.N,Net-(C2-Pad1)*%
X143400000Y-127300000D03*
X131191668Y-120808332D03*
%TO.N,Net-(C3-Pad1)*%
X172400000Y-128100000D03*
X131200000Y-123300000D03*
%TO.N,Net-(C6-Pad1)*%
X147100000Y-106600000D03*
X165700000Y-106600000D03*
%TO.N,GND*%
X144970000Y-97700000D03*
X144970000Y-95231250D03*
X113700000Y-76900000D03*
X133200000Y-100600000D03*
X105190000Y-83090000D03*
X180182500Y-119421250D03*
X173832500Y-97500000D03*
X144970000Y-119550000D03*
X179890000Y-81480000D03*
X181452500Y-119421250D03*
X152590000Y-95231250D03*
X151320000Y-119621250D03*
X181452500Y-116881250D03*
X161280000Y-98520000D03*
X138862500Y-100850000D03*
X180182500Y-97571250D03*
X173832500Y-95031250D03*
X173832500Y-96301250D03*
X152590000Y-117081250D03*
X144970000Y-99041250D03*
X152590000Y-97771250D03*
X152590000Y-120891250D03*
X152590000Y-99041250D03*
X144970000Y-118351250D03*
X181452500Y-120691250D03*
X107870000Y-78095000D03*
X167725000Y-122500000D03*
X181452500Y-98841250D03*
X181452500Y-118151250D03*
X173832500Y-118151250D03*
X116500000Y-89100000D03*
X103575000Y-78100000D03*
X112600000Y-96900000D03*
X167725000Y-100650000D03*
X173832500Y-119350000D03*
X173832500Y-116881250D03*
X151320000Y-97771250D03*
X181452500Y-96301250D03*
X181452500Y-95031250D03*
X103575000Y-79300000D03*
X152590000Y-118351250D03*
X107900000Y-79275000D03*
X138862500Y-122700000D03*
X152590000Y-119621250D03*
X181452500Y-97571250D03*
X173832500Y-120691250D03*
X144970000Y-117081250D03*
X158770000Y-112820000D03*
X152590000Y-96501250D03*
X144970000Y-96501250D03*
X187620000Y-112450000D03*
X173832500Y-98841250D03*
X120000000Y-89200000D03*
X144970000Y-120891250D03*
%TD*%
D22*
%TO.N,Net-(C2-Pad1)*%
X131191668Y-120808332D02*
X133000000Y-122616664D01*
X134100000Y-127300000D02*
X143400000Y-127300000D01*
X133000000Y-122616664D02*
X133000000Y-126200000D01*
X133000000Y-126200000D02*
X134100000Y-127300000D01*
%TO.N,Net-(C3-Pad1)*%
X131200000Y-123300000D02*
X131800000Y-123900000D01*
X133100000Y-128100000D02*
X172400000Y-128100000D01*
X131800000Y-126800000D02*
X133100000Y-128100000D01*
X131800000Y-123900000D02*
X131800000Y-126800000D01*
%TO.N,Net-(C6-Pad1)*%
X165700000Y-106600000D02*
X147100000Y-106600000D01*
%TD*%
%TA.AperFunction,Conductor*%
%TO.N,GND*%
G36*
X153860000Y-100311250D02*
G01*
X143700000Y-100311250D01*
X143700000Y-93961250D01*
X153860000Y-93961250D01*
X153860000Y-100311250D01*
G37*
%TD.AperFunction*%
%TD*%
%TA.AperFunction,Conductor*%
%TO.N,GND*%
G36*
X182722500Y-100111250D02*
G01*
X172562500Y-100111250D01*
X172562500Y-93761250D01*
X182722500Y-93761250D01*
X182722500Y-100111250D01*
G37*
%TD.AperFunction*%
%TD*%
%TA.AperFunction,Conductor*%
%TO.N,GND*%
G36*
X182722500Y-121961250D02*
G01*
X172562500Y-121961250D01*
X172562500Y-115611250D01*
X182722500Y-115611250D01*
X182722500Y-121961250D01*
G37*
%TD.AperFunction*%
%TD*%
%TA.AperFunction,Conductor*%
%TO.N,GND*%
G36*
X153860000Y-122161250D02*
G01*
X143700000Y-122161250D01*
X143700000Y-115811250D01*
X153860000Y-115811250D01*
X153860000Y-122161250D01*
G37*
%TD.AperFunction*%
%TD*%
%TA.AperFunction,Conductor*%
%TO.N,GND*%
G36*
X185209780Y-70520502D02*
G01*
X185256273Y-70574158D01*
X185266377Y-70644432D01*
X185236883Y-70709012D01*
X185208615Y-70733237D01*
X185145961Y-70772540D01*
X184889411Y-70978076D01*
X184658185Y-71211736D01*
X184455347Y-71470424D01*
X184453454Y-71473513D01*
X184453452Y-71473516D01*
X184313255Y-71702298D01*
X184283587Y-71750711D01*
X184145180Y-72048883D01*
X184041962Y-72360986D01*
X183975300Y-72682885D01*
X183946078Y-73010312D01*
X183946173Y-73013942D01*
X183946173Y-73013943D01*
X183954588Y-73335301D01*
X183954683Y-73338928D01*
X183955193Y-73342513D01*
X183955194Y-73342522D01*
X183974814Y-73480375D01*
X184001001Y-73664377D01*
X184001920Y-73667880D01*
X184001921Y-73667885D01*
X184082110Y-73973546D01*
X184084419Y-73982346D01*
X184203830Y-74288619D01*
X184205527Y-74291824D01*
X184354258Y-74572728D01*
X184357652Y-74579139D01*
X184359702Y-74582122D01*
X184359704Y-74582125D01*
X184541789Y-74847061D01*
X184541795Y-74847068D01*
X184543846Y-74850053D01*
X184759944Y-75097770D01*
X185003082Y-75319009D01*
X185270037Y-75510836D01*
X185557271Y-75670708D01*
X185860977Y-75796507D01*
X185864471Y-75797502D01*
X185864473Y-75797503D01*
X186173628Y-75885568D01*
X186173633Y-75885569D01*
X186177129Y-75886565D01*
X186400175Y-75923090D01*
X186497957Y-75939103D01*
X186497961Y-75939103D01*
X186501537Y-75939689D01*
X186505163Y-75939860D01*
X186826273Y-75955003D01*
X186826274Y-75955003D01*
X186829900Y-75955174D01*
X186857038Y-75953324D01*
X187154237Y-75933064D01*
X187154245Y-75933063D01*
X187157868Y-75932816D01*
X187161444Y-75932153D01*
X187161446Y-75932153D01*
X187477527Y-75873571D01*
X187477531Y-75873570D01*
X187481092Y-75872910D01*
X187795289Y-75776250D01*
X187868737Y-75744009D01*
X187961272Y-75703389D01*
X188096293Y-75644119D01*
X188380116Y-75478266D01*
X188511555Y-75379578D01*
X188640092Y-75283070D01*
X188640096Y-75283067D01*
X188642995Y-75280890D01*
X188699343Y-75227419D01*
X188878813Y-75057109D01*
X188878817Y-75057105D01*
X188881447Y-75054609D01*
X188919382Y-75009240D01*
X189089988Y-74805196D01*
X189092310Y-74802419D01*
X189150641Y-74713619D01*
X189197748Y-74641905D01*
X189243189Y-74572728D01*
X189297306Y-74526774D01*
X189367677Y-74517373D01*
X189431960Y-74547510D01*
X189469745Y-74607617D01*
X189474500Y-74641905D01*
X189474500Y-141373500D01*
X189454498Y-141441621D01*
X189400842Y-141488114D01*
X189348500Y-141499500D01*
X185946756Y-141499500D01*
X185878635Y-141479498D01*
X185832142Y-141425842D01*
X185822038Y-141355568D01*
X185851532Y-141290988D01*
X185911258Y-141252604D01*
X185938186Y-141247792D01*
X186154237Y-141233064D01*
X186154245Y-141233063D01*
X186157868Y-141232816D01*
X186161444Y-141232153D01*
X186161446Y-141232153D01*
X186477527Y-141173571D01*
X186477531Y-141173570D01*
X186481092Y-141172910D01*
X186795289Y-141076250D01*
X186804755Y-141072095D01*
X186945791Y-141010184D01*
X187096293Y-140944119D01*
X187156887Y-140908711D01*
X187376986Y-140780095D01*
X187380116Y-140778266D01*
X187513139Y-140678389D01*
X187640092Y-140583070D01*
X187640096Y-140583067D01*
X187642995Y-140580890D01*
X187728012Y-140500213D01*
X187878813Y-140357109D01*
X187878817Y-140357105D01*
X187881447Y-140354609D01*
X188092310Y-140102419D01*
X188094298Y-140099393D01*
X188270802Y-139830691D01*
X188270807Y-139830682D01*
X188272789Y-139827665D01*
X188394718Y-139585237D01*
X188418866Y-139537225D01*
X188418869Y-139537217D01*
X188420493Y-139533989D01*
X188498161Y-139321751D01*
X188532216Y-139228692D01*
X188532217Y-139228688D01*
X188533464Y-139225281D01*
X188534309Y-139221759D01*
X188534312Y-139221751D01*
X188609357Y-138909165D01*
X188609358Y-138909161D01*
X188610204Y-138905636D01*
X188637596Y-138679288D01*
X188649361Y-138582067D01*
X188649362Y-138582060D01*
X188649697Y-138579288D01*
X188652277Y-138497204D01*
X188655243Y-138402797D01*
X188655331Y-138400000D01*
X188636408Y-138071816D01*
X188620267Y-137979335D01*
X188580514Y-137751556D01*
X188580512Y-137751549D01*
X188579890Y-137747983D01*
X188486526Y-137432791D01*
X188401630Y-137233753D01*
X188358976Y-137133753D01*
X188357554Y-137130419D01*
X188194682Y-136844875D01*
X188142264Y-136773516D01*
X188002210Y-136582857D01*
X188002208Y-136582855D01*
X188000070Y-136579944D01*
X187870808Y-136440841D01*
X187778757Y-136341782D01*
X187778755Y-136341780D01*
X187776298Y-136339136D01*
X187526331Y-136125643D01*
X187523328Y-136123625D01*
X187523320Y-136123619D01*
X187333834Y-135996291D01*
X187253482Y-135942297D01*
X186961368Y-135791525D01*
X186653860Y-135675328D01*
X186650339Y-135674444D01*
X186650334Y-135674442D01*
X186497717Y-135636108D01*
X186335036Y-135595245D01*
X186312754Y-135592312D01*
X186012723Y-135552811D01*
X186012715Y-135552810D01*
X186009119Y-135552337D01*
X185873337Y-135550204D01*
X185684073Y-135547231D01*
X185684069Y-135547231D01*
X185680431Y-135547174D01*
X185676817Y-135547535D01*
X185676811Y-135547535D01*
X185445872Y-135570586D01*
X185353328Y-135579823D01*
X185129802Y-135628559D01*
X185042772Y-135647535D01*
X185032145Y-135649852D01*
X185028718Y-135651025D01*
X185028712Y-135651027D01*
X184724570Y-135755158D01*
X184724565Y-135755160D01*
X184721139Y-135756333D01*
X184717871Y-135757892D01*
X184717863Y-135757895D01*
X184624660Y-135802351D01*
X184424434Y-135897854D01*
X184145961Y-136072540D01*
X183889411Y-136278076D01*
X183658185Y-136511736D01*
X183455347Y-136770424D01*
X183453454Y-136773513D01*
X183453452Y-136773516D01*
X183313772Y-137001454D01*
X183283587Y-137050711D01*
X183282068Y-137053983D01*
X183282065Y-137053989D01*
X183275569Y-137067984D01*
X183145180Y-137348883D01*
X183041962Y-137660986D01*
X182975300Y-137982885D01*
X182946078Y-138310312D01*
X182946173Y-138313942D01*
X182946173Y-138313943D01*
X182948500Y-138402797D01*
X182954683Y-138638928D01*
X182955193Y-138642513D01*
X182955194Y-138642522D01*
X182977842Y-138801653D01*
X183001001Y-138964377D01*
X183084419Y-139282346D01*
X183203830Y-139588619D01*
X183205527Y-139591824D01*
X183328685Y-139824429D01*
X183357652Y-139879139D01*
X183359702Y-139882122D01*
X183359704Y-139882125D01*
X183541789Y-140147061D01*
X183541795Y-140147068D01*
X183543846Y-140150053D01*
X183759944Y-140397770D01*
X184003082Y-140619009D01*
X184270037Y-140810836D01*
X184557271Y-140970708D01*
X184860977Y-141096507D01*
X184864471Y-141097502D01*
X184864473Y-141097503D01*
X185173628Y-141185568D01*
X185173633Y-141185569D01*
X185177129Y-141186565D01*
X185400175Y-141223090D01*
X185497957Y-141239103D01*
X185497961Y-141239103D01*
X185501537Y-141239689D01*
X185505163Y-141239860D01*
X185670140Y-141247640D01*
X185737243Y-141270829D01*
X185781157Y-141326615D01*
X185787939Y-141397287D01*
X185755437Y-141460406D01*
X185693969Y-141495934D01*
X185664205Y-141499500D01*
X93882632Y-141499500D01*
X93814511Y-141479498D01*
X93768018Y-141425842D01*
X93757914Y-141355568D01*
X93787408Y-141290988D01*
X93845583Y-141253070D01*
X94091827Y-141177315D01*
X94091826Y-141177315D01*
X94095289Y-141176250D01*
X94105327Y-141171844D01*
X94326411Y-141074795D01*
X94396293Y-141044119D01*
X94680116Y-140878266D01*
X94816206Y-140776086D01*
X94940092Y-140683070D01*
X94940096Y-140683067D01*
X94942995Y-140680890D01*
X95008205Y-140619009D01*
X95178813Y-140457109D01*
X95178817Y-140457105D01*
X95181447Y-140454609D01*
X95231260Y-140395034D01*
X95389988Y-140205196D01*
X95392310Y-140202419D01*
X95426708Y-140150053D01*
X95570802Y-139930691D01*
X95570807Y-139930682D01*
X95572789Y-139927665D01*
X95693017Y-139688619D01*
X95718866Y-139637225D01*
X95718869Y-139637217D01*
X95720493Y-139633989D01*
X95833464Y-139325281D01*
X95834309Y-139321759D01*
X95834312Y-139321751D01*
X95909357Y-139009165D01*
X95909358Y-139009161D01*
X95910204Y-139005636D01*
X95910641Y-139002026D01*
X95949361Y-138682067D01*
X95949362Y-138682060D01*
X95949697Y-138679288D01*
X95950853Y-138642522D01*
X95955243Y-138502797D01*
X95955331Y-138500000D01*
X95955170Y-138497204D01*
X95936617Y-138175436D01*
X95936616Y-138175431D01*
X95936408Y-138171816D01*
X95918332Y-138068247D01*
X95880514Y-137851556D01*
X95880512Y-137851549D01*
X95879890Y-137847983D01*
X95786526Y-137532791D01*
X95745360Y-137436277D01*
X95658976Y-137233753D01*
X95657554Y-137230419D01*
X95494682Y-136944875D01*
X95475242Y-136918410D01*
X95302210Y-136682857D01*
X95302208Y-136682855D01*
X95300070Y-136679944D01*
X95143762Y-136511736D01*
X95078757Y-136441782D01*
X95078755Y-136441780D01*
X95076298Y-136439136D01*
X94826331Y-136225643D01*
X94823328Y-136223625D01*
X94823320Y-136223619D01*
X94654235Y-136110000D01*
X94553482Y-136042297D01*
X94261368Y-135891525D01*
X93986215Y-135787554D01*
X151599500Y-135787554D01*
X151599712Y-135790127D01*
X151599712Y-135790138D01*
X151614151Y-135965760D01*
X151614152Y-135965766D01*
X151614575Y-135970911D01*
X151674684Y-136210217D01*
X151773072Y-136436493D01*
X151907095Y-136643661D01*
X151910575Y-136647486D01*
X151910577Y-136647488D01*
X151959757Y-136701536D01*
X152073154Y-136826158D01*
X152077205Y-136829357D01*
X152077209Y-136829361D01*
X152262736Y-136975881D01*
X152262741Y-136975884D01*
X152266790Y-136979082D01*
X152271306Y-136981575D01*
X152271309Y-136981577D01*
X152478278Y-137095830D01*
X152478282Y-137095832D01*
X152482802Y-137098327D01*
X152487671Y-137100051D01*
X152487675Y-137100053D01*
X152710515Y-137178965D01*
X152710519Y-137178966D01*
X152715390Y-137180691D01*
X152720483Y-137181598D01*
X152720486Y-137181599D01*
X152953217Y-137223055D01*
X152953223Y-137223056D01*
X152958306Y-137223961D01*
X153037676Y-137224931D01*
X153199858Y-137226912D01*
X153199860Y-137226912D01*
X153205028Y-137226975D01*
X153448930Y-137189653D01*
X153683460Y-137112997D01*
X153803110Y-137050711D01*
X153897732Y-137001454D01*
X153897733Y-137001453D01*
X153902321Y-136999065D01*
X153906454Y-136995962D01*
X153906457Y-136995960D01*
X154095501Y-136854022D01*
X154095504Y-136854020D01*
X154099636Y-136850917D01*
X154270104Y-136672532D01*
X154289799Y-136643661D01*
X154406230Y-136472979D01*
X154409149Y-136468700D01*
X154496436Y-136280656D01*
X154510856Y-136249591D01*
X154510857Y-136249587D01*
X154513035Y-136244896D01*
X154578974Y-136007129D01*
X154590446Y-135899786D01*
X154600144Y-135809043D01*
X154600144Y-135809035D01*
X154600500Y-135805708D01*
X154600500Y-135787554D01*
X156599500Y-135787554D01*
X156599712Y-135790127D01*
X156599712Y-135790138D01*
X156614151Y-135965760D01*
X156614152Y-135965766D01*
X156614575Y-135970911D01*
X156674684Y-136210217D01*
X156773072Y-136436493D01*
X156907095Y-136643661D01*
X156910575Y-136647486D01*
X156910577Y-136647488D01*
X156959757Y-136701536D01*
X157073154Y-136826158D01*
X157077205Y-136829357D01*
X157077209Y-136829361D01*
X157262736Y-136975881D01*
X157262741Y-136975884D01*
X157266790Y-136979082D01*
X157271306Y-136981575D01*
X157271309Y-136981577D01*
X157478278Y-137095830D01*
X157478282Y-137095832D01*
X157482802Y-137098327D01*
X157487671Y-137100051D01*
X157487675Y-137100053D01*
X157710515Y-137178965D01*
X157710519Y-137178966D01*
X157715390Y-137180691D01*
X157720483Y-137181598D01*
X157720486Y-137181599D01*
X157953217Y-137223055D01*
X157953223Y-137223056D01*
X157958306Y-137223961D01*
X158037676Y-137224931D01*
X158199858Y-137226912D01*
X158199860Y-137226912D01*
X158205028Y-137226975D01*
X158448930Y-137189653D01*
X158683460Y-137112997D01*
X158803110Y-137050711D01*
X158897732Y-137001454D01*
X158897733Y-137001453D01*
X158902321Y-136999065D01*
X158906454Y-136995962D01*
X158906457Y-136995960D01*
X159095501Y-136854022D01*
X159095504Y-136854020D01*
X159099636Y-136850917D01*
X159270104Y-136672532D01*
X159289799Y-136643661D01*
X159406230Y-136472979D01*
X159409149Y-136468700D01*
X159496436Y-136280656D01*
X159510856Y-136249591D01*
X159510857Y-136249587D01*
X159513035Y-136244896D01*
X159578974Y-136007129D01*
X159590446Y-135899786D01*
X159600144Y-135809043D01*
X159600144Y-135809035D01*
X159600500Y-135805708D01*
X159600500Y-135787554D01*
X161599500Y-135787554D01*
X161599712Y-135790127D01*
X161599712Y-135790138D01*
X161614151Y-135965760D01*
X161614152Y-135965766D01*
X161614575Y-135970911D01*
X161674684Y-136210217D01*
X161773072Y-136436493D01*
X161907095Y-136643661D01*
X161910575Y-136647486D01*
X161910577Y-136647488D01*
X161959757Y-136701536D01*
X162073154Y-136826158D01*
X162077205Y-136829357D01*
X162077209Y-136829361D01*
X162262736Y-136975881D01*
X162262741Y-136975884D01*
X162266790Y-136979082D01*
X162271306Y-136981575D01*
X162271309Y-136981577D01*
X162478278Y-137095830D01*
X162478282Y-137095832D01*
X162482802Y-137098327D01*
X162487671Y-137100051D01*
X162487675Y-137100053D01*
X162710515Y-137178965D01*
X162710519Y-137178966D01*
X162715390Y-137180691D01*
X162720483Y-137181598D01*
X162720486Y-137181599D01*
X162953217Y-137223055D01*
X162953223Y-137223056D01*
X162958306Y-137223961D01*
X163037676Y-137224931D01*
X163199858Y-137226912D01*
X163199860Y-137226912D01*
X163205028Y-137226975D01*
X163448930Y-137189653D01*
X163683460Y-137112997D01*
X163803110Y-137050711D01*
X163897732Y-137001454D01*
X163897733Y-137001453D01*
X163902321Y-136999065D01*
X163906454Y-136995962D01*
X163906457Y-136995960D01*
X164095501Y-136854022D01*
X164095504Y-136854020D01*
X164099636Y-136850917D01*
X164270104Y-136672532D01*
X164289799Y-136643661D01*
X164370835Y-136524866D01*
X166599500Y-136524866D01*
X166599837Y-136528112D01*
X166599837Y-136528116D01*
X166609515Y-136621383D01*
X166610359Y-136629519D01*
X166612540Y-136636055D01*
X166612540Y-136636057D01*
X166624709Y-136672532D01*
X166665744Y-136795529D01*
X166757834Y-136944345D01*
X166881689Y-137067984D01*
X167030666Y-137159814D01*
X167037614Y-137162119D01*
X167037615Y-137162119D01*
X167190241Y-137212744D01*
X167190243Y-137212745D01*
X167196772Y-137214910D01*
X167300134Y-137225500D01*
X168899866Y-137225500D01*
X168903112Y-137225163D01*
X168903116Y-137225163D01*
X168997661Y-137215353D01*
X168997665Y-137215352D01*
X169004519Y-137214641D01*
X169011055Y-137212460D01*
X169011057Y-137212460D01*
X169163581Y-137161574D01*
X169170529Y-137159256D01*
X169319345Y-137067166D01*
X169442984Y-136943311D01*
X169534814Y-136794334D01*
X169589910Y-136628228D01*
X169600500Y-136524866D01*
X169600500Y-133325134D01*
X169600163Y-133321884D01*
X169590353Y-133227339D01*
X169590352Y-133227335D01*
X169589641Y-133220481D01*
X169576717Y-133181741D01*
X169536574Y-133061419D01*
X169534256Y-133054471D01*
X169442166Y-132905655D01*
X169318311Y-132782016D01*
X169169334Y-132690186D01*
X169084219Y-132661954D01*
X169009759Y-132637256D01*
X169009757Y-132637255D01*
X169003228Y-132635090D01*
X168899866Y-132624500D01*
X167300134Y-132624500D01*
X167296888Y-132624837D01*
X167296884Y-132624837D01*
X167202339Y-132634647D01*
X167202335Y-132634648D01*
X167195481Y-132635359D01*
X167188945Y-132637540D01*
X167188943Y-132637540D01*
X167093720Y-132669309D01*
X167029471Y-132690744D01*
X166880655Y-132782834D01*
X166757016Y-132906689D01*
X166665186Y-133055666D01*
X166610090Y-133221772D01*
X166599500Y-133325134D01*
X166599500Y-136524866D01*
X164370835Y-136524866D01*
X164406230Y-136472979D01*
X164409149Y-136468700D01*
X164496436Y-136280656D01*
X164510856Y-136249591D01*
X164510857Y-136249587D01*
X164513035Y-136244896D01*
X164578974Y-136007129D01*
X164590446Y-135899786D01*
X164600144Y-135809043D01*
X164600144Y-135809035D01*
X164600500Y-135805708D01*
X164600500Y-134062446D01*
X164600288Y-134059862D01*
X164585849Y-133884240D01*
X164585848Y-133884234D01*
X164585425Y-133879089D01*
X164525316Y-133639783D01*
X164426928Y-133413507D01*
X164292905Y-133206339D01*
X164266635Y-133177468D01*
X164240243Y-133148464D01*
X164126846Y-133023842D01*
X164122795Y-133020643D01*
X164122791Y-133020639D01*
X163937264Y-132874119D01*
X163937259Y-132874116D01*
X163933210Y-132870918D01*
X163928694Y-132868425D01*
X163928691Y-132868423D01*
X163721722Y-132754170D01*
X163721718Y-132754168D01*
X163717198Y-132751673D01*
X163712329Y-132749949D01*
X163712325Y-132749947D01*
X163489485Y-132671035D01*
X163489481Y-132671034D01*
X163484610Y-132669309D01*
X163479517Y-132668402D01*
X163479514Y-132668401D01*
X163246783Y-132626945D01*
X163246777Y-132626944D01*
X163241694Y-132626039D01*
X163162324Y-132625069D01*
X163000142Y-132623088D01*
X163000140Y-132623088D01*
X162994972Y-132623025D01*
X162751070Y-132660347D01*
X162516540Y-132737003D01*
X162297679Y-132850935D01*
X162293546Y-132854038D01*
X162293543Y-132854040D01*
X162104499Y-132995978D01*
X162100364Y-132999083D01*
X161929896Y-133177468D01*
X161926982Y-133181740D01*
X161926981Y-133181741D01*
X161907238Y-133210683D01*
X161790851Y-133381300D01*
X161686965Y-133605104D01*
X161621026Y-133842871D01*
X161599500Y-134044292D01*
X161599500Y-135787554D01*
X159600500Y-135787554D01*
X159600500Y-134062446D01*
X159600288Y-134059862D01*
X159585849Y-133884240D01*
X159585848Y-133884234D01*
X159585425Y-133879089D01*
X159525316Y-133639783D01*
X159426928Y-133413507D01*
X159292905Y-133206339D01*
X159266635Y-133177468D01*
X159240243Y-133148464D01*
X159126846Y-133023842D01*
X159122795Y-133020643D01*
X159122791Y-133020639D01*
X158937264Y-132874119D01*
X158937259Y-132874116D01*
X158933210Y-132870918D01*
X158928694Y-132868425D01*
X158928691Y-132868423D01*
X158721722Y-132754170D01*
X158721718Y-132754168D01*
X158717198Y-132751673D01*
X158712329Y-132749949D01*
X158712325Y-132749947D01*
X158489485Y-132671035D01*
X158489481Y-132671034D01*
X158484610Y-132669309D01*
X158479517Y-132668402D01*
X158479514Y-132668401D01*
X158246783Y-132626945D01*
X158246777Y-132626944D01*
X158241694Y-132626039D01*
X158162324Y-132625069D01*
X158000142Y-132623088D01*
X158000140Y-132623088D01*
X157994972Y-132623025D01*
X157751070Y-132660347D01*
X157516540Y-132737003D01*
X157297679Y-132850935D01*
X157293546Y-132854038D01*
X157293543Y-132854040D01*
X157104499Y-132995978D01*
X157100364Y-132999083D01*
X156929896Y-133177468D01*
X156926982Y-133181740D01*
X156926981Y-133181741D01*
X156907238Y-133210683D01*
X156790851Y-133381300D01*
X156686965Y-133605104D01*
X156621026Y-133842871D01*
X156599500Y-134044292D01*
X156599500Y-135787554D01*
X154600500Y-135787554D01*
X154600500Y-134062446D01*
X154600288Y-134059862D01*
X154585849Y-133884240D01*
X154585848Y-133884234D01*
X154585425Y-133879089D01*
X154525316Y-133639783D01*
X154426928Y-133413507D01*
X154292905Y-133206339D01*
X154266635Y-133177468D01*
X154240243Y-133148464D01*
X154126846Y-133023842D01*
X154122795Y-133020643D01*
X154122791Y-133020639D01*
X153937264Y-132874119D01*
X153937259Y-132874116D01*
X153933210Y-132870918D01*
X153928694Y-132868425D01*
X153928691Y-132868423D01*
X153721722Y-132754170D01*
X153721718Y-132754168D01*
X153717198Y-132751673D01*
X153712329Y-132749949D01*
X153712325Y-132749947D01*
X153489485Y-132671035D01*
X153489481Y-132671034D01*
X153484610Y-132669309D01*
X153479517Y-132668402D01*
X153479514Y-132668401D01*
X153246783Y-132626945D01*
X153246777Y-132626944D01*
X153241694Y-132626039D01*
X153162324Y-132625069D01*
X153000142Y-132623088D01*
X153000140Y-132623088D01*
X152994972Y-132623025D01*
X152751070Y-132660347D01*
X152516540Y-132737003D01*
X152297679Y-132850935D01*
X152293546Y-132854038D01*
X152293543Y-132854040D01*
X152104499Y-132995978D01*
X152100364Y-132999083D01*
X151929896Y-133177468D01*
X151926982Y-133181740D01*
X151926981Y-133181741D01*
X151907238Y-133210683D01*
X151790851Y-133381300D01*
X151686965Y-133605104D01*
X151621026Y-133842871D01*
X151599500Y-134044292D01*
X151599500Y-135787554D01*
X93986215Y-135787554D01*
X93953860Y-135775328D01*
X93950339Y-135774444D01*
X93950334Y-135774442D01*
X93797717Y-135736108D01*
X93635036Y-135695245D01*
X93612754Y-135692312D01*
X93312723Y-135652811D01*
X93312715Y-135652810D01*
X93309119Y-135652337D01*
X93173337Y-135650204D01*
X92984073Y-135647231D01*
X92984069Y-135647231D01*
X92980431Y-135647174D01*
X92976817Y-135647535D01*
X92976811Y-135647535D01*
X92745872Y-135670586D01*
X92653328Y-135679823D01*
X92332145Y-135749852D01*
X92328718Y-135751025D01*
X92328712Y-135751027D01*
X92024570Y-135855158D01*
X92024565Y-135855160D01*
X92021139Y-135856333D01*
X92017871Y-135857892D01*
X92017863Y-135857895D01*
X91866698Y-135929998D01*
X91724434Y-135997854D01*
X91445961Y-136172540D01*
X91189411Y-136378076D01*
X90958185Y-136611736D01*
X90755347Y-136870424D01*
X90753454Y-136873513D01*
X90753452Y-136873516D01*
X90725941Y-136918410D01*
X90709724Y-136944875D01*
X90708933Y-136946165D01*
X90656285Y-136993796D01*
X90586244Y-137005403D01*
X90521046Y-136977300D01*
X90481392Y-136918410D01*
X90475500Y-136880330D01*
X90475500Y-128340000D01*
X93024532Y-128340000D01*
X93044365Y-128566692D01*
X93045789Y-128572005D01*
X93045789Y-128572007D01*
X93097116Y-128763561D01*
X93103261Y-128786496D01*
X93105583Y-128791476D01*
X93105584Y-128791478D01*
X93148799Y-128884151D01*
X93199432Y-128992734D01*
X93329953Y-129179139D01*
X93490861Y-129340047D01*
X93677266Y-129470568D01*
X93682244Y-129472889D01*
X93682247Y-129472891D01*
X93878522Y-129564416D01*
X93883504Y-129566739D01*
X93888812Y-129568161D01*
X93888814Y-129568162D01*
X94097993Y-129624211D01*
X94097995Y-129624211D01*
X94103308Y-129625635D01*
X94202302Y-129634296D01*
X94270492Y-129640262D01*
X94270499Y-129640262D01*
X94273216Y-129640500D01*
X94786784Y-129640500D01*
X94789501Y-129640262D01*
X94789508Y-129640262D01*
X94857698Y-129634296D01*
X94956692Y-129625635D01*
X94962005Y-129624211D01*
X94962007Y-129624211D01*
X95171186Y-129568162D01*
X95171188Y-129568161D01*
X95176496Y-129566739D01*
X95181478Y-129564416D01*
X95377753Y-129472891D01*
X95377756Y-129472889D01*
X95382734Y-129470568D01*
X95569139Y-129340047D01*
X95730047Y-129179139D01*
X95860568Y-128992734D01*
X95911202Y-128884151D01*
X95954416Y-128791478D01*
X95954417Y-128791476D01*
X95956739Y-128786496D01*
X95962885Y-128763561D01*
X96014211Y-128572007D01*
X96014211Y-128572005D01*
X96015635Y-128566692D01*
X96035468Y-128340000D01*
X115884532Y-128340000D01*
X115904365Y-128566692D01*
X115905789Y-128572005D01*
X115905789Y-128572007D01*
X115957116Y-128763561D01*
X115963261Y-128786496D01*
X115965583Y-128791476D01*
X115965584Y-128791478D01*
X116008799Y-128884151D01*
X116059432Y-128992734D01*
X116189953Y-129179139D01*
X116350861Y-129340047D01*
X116537266Y-129470568D01*
X116542244Y-129472889D01*
X116542247Y-129472891D01*
X116738522Y-129564416D01*
X116743504Y-129566739D01*
X116748812Y-129568161D01*
X116748814Y-129568162D01*
X116957993Y-129624211D01*
X116957995Y-129624211D01*
X116963308Y-129625635D01*
X117062302Y-129634296D01*
X117130492Y-129640262D01*
X117130499Y-129640262D01*
X117133216Y-129640500D01*
X117646784Y-129640500D01*
X117649501Y-129640262D01*
X117649508Y-129640262D01*
X117717698Y-129634296D01*
X117816692Y-129625635D01*
X117822005Y-129624211D01*
X117822007Y-129624211D01*
X118031186Y-129568162D01*
X118031188Y-129568161D01*
X118036496Y-129566739D01*
X118041478Y-129564416D01*
X118237753Y-129472891D01*
X118237756Y-129472889D01*
X118242734Y-129470568D01*
X118429139Y-129340047D01*
X118590047Y-129179139D01*
X118720568Y-128992734D01*
X118771202Y-128884151D01*
X118814416Y-128791478D01*
X118814417Y-128791476D01*
X118816739Y-128786496D01*
X118822885Y-128763561D01*
X118874211Y-128572007D01*
X118874211Y-128572005D01*
X118875635Y-128566692D01*
X118895468Y-128340000D01*
X118875635Y-128113308D01*
X118823385Y-127918307D01*
X118818162Y-127898814D01*
X118818161Y-127898812D01*
X118816739Y-127893504D01*
X118814416Y-127888522D01*
X118722891Y-127692247D01*
X118722889Y-127692244D01*
X118720568Y-127687266D01*
X118590047Y-127500861D01*
X118429139Y-127339953D01*
X118242734Y-127209432D01*
X118237756Y-127207111D01*
X118237753Y-127207109D01*
X118041478Y-127115584D01*
X118041476Y-127115583D01*
X118036496Y-127113261D01*
X118031188Y-127111839D01*
X118031186Y-127111838D01*
X117822007Y-127055789D01*
X117822005Y-127055789D01*
X117816692Y-127054365D01*
X117717698Y-127045704D01*
X117649508Y-127039738D01*
X117649501Y-127039738D01*
X117646784Y-127039500D01*
X117133216Y-127039500D01*
X117130499Y-127039738D01*
X117130492Y-127039738D01*
X117062302Y-127045704D01*
X116963308Y-127054365D01*
X116957995Y-127055789D01*
X116957993Y-127055789D01*
X116748814Y-127111838D01*
X116748812Y-127111839D01*
X116743504Y-127113261D01*
X116738524Y-127115583D01*
X116738522Y-127115584D01*
X116542247Y-127207109D01*
X116542244Y-127207111D01*
X116537266Y-127209432D01*
X116350861Y-127339953D01*
X116189953Y-127500861D01*
X116059432Y-127687266D01*
X116057111Y-127692244D01*
X116057109Y-127692247D01*
X115965584Y-127888522D01*
X115963261Y-127893504D01*
X115961839Y-127898812D01*
X115961838Y-127898814D01*
X115956615Y-127918307D01*
X115904365Y-128113308D01*
X115884532Y-128340000D01*
X96035468Y-128340000D01*
X96015635Y-128113308D01*
X95963385Y-127918307D01*
X95958162Y-127898814D01*
X95958161Y-127898812D01*
X95956739Y-127893504D01*
X95954416Y-127888522D01*
X95862891Y-127692247D01*
X95862889Y-127692244D01*
X95860568Y-127687266D01*
X95730047Y-127500861D01*
X95569139Y-127339953D01*
X95382734Y-127209432D01*
X95377756Y-127207111D01*
X95377753Y-127207109D01*
X95328613Y-127184195D01*
X95275328Y-127137278D01*
X95255867Y-127069000D01*
X95276409Y-127001041D01*
X95328613Y-126955805D01*
X95377753Y-126932891D01*
X95377756Y-126932889D01*
X95382734Y-126930568D01*
X95569139Y-126800047D01*
X95730047Y-126639139D01*
X95860568Y-126452734D01*
X95867040Y-126438856D01*
X95954416Y-126251478D01*
X95954417Y-126251476D01*
X95956739Y-126246496D01*
X96015635Y-126026692D01*
X96035468Y-125800000D01*
X96015635Y-125573308D01*
X95956739Y-125353504D01*
X95860568Y-125147266D01*
X95730047Y-124960861D01*
X95569139Y-124799953D01*
X95382734Y-124669432D01*
X95377756Y-124667111D01*
X95377753Y-124667109D01*
X95328613Y-124644195D01*
X95275328Y-124597278D01*
X95255867Y-124529000D01*
X95276409Y-124461041D01*
X95328613Y-124415805D01*
X95377753Y-124392891D01*
X95377756Y-124392889D01*
X95382734Y-124390568D01*
X95569139Y-124260047D01*
X95730047Y-124099139D01*
X95860568Y-123912734D01*
X95898115Y-123832216D01*
X95954416Y-123711478D01*
X95954417Y-123711476D01*
X95956739Y-123706496D01*
X95965445Y-123674007D01*
X96014211Y-123492007D01*
X96014211Y-123492005D01*
X96015635Y-123486692D01*
X96035468Y-123260000D01*
X115884532Y-123260000D01*
X115904365Y-123486692D01*
X115905789Y-123492005D01*
X115905789Y-123492007D01*
X115954556Y-123674007D01*
X115963261Y-123706496D01*
X115965583Y-123711476D01*
X115965584Y-123711478D01*
X116021886Y-123832216D01*
X116059432Y-123912734D01*
X116189953Y-124099139D01*
X116350861Y-124260047D01*
X116537266Y-124390568D01*
X116542244Y-124392889D01*
X116542247Y-124392891D01*
X116738522Y-124484416D01*
X116743504Y-124486739D01*
X116748812Y-124488161D01*
X116748814Y-124488162D01*
X116957993Y-124544211D01*
X116957995Y-124544211D01*
X116963308Y-124545635D01*
X117062302Y-124554296D01*
X117130492Y-124560262D01*
X117130499Y-124560262D01*
X117133216Y-124560500D01*
X117646784Y-124560500D01*
X117649501Y-124560262D01*
X117649508Y-124560262D01*
X117717698Y-124554296D01*
X117816692Y-124545635D01*
X117822005Y-124544211D01*
X117822007Y-124544211D01*
X118031186Y-124488162D01*
X118031188Y-124488161D01*
X118036496Y-124486739D01*
X118041478Y-124484416D01*
X118237753Y-124392891D01*
X118237756Y-124392889D01*
X118242734Y-124390568D01*
X118429139Y-124260047D01*
X118590047Y-124099139D01*
X118720568Y-123912734D01*
X118758115Y-123832216D01*
X118814416Y-123711478D01*
X118814417Y-123711476D01*
X118816739Y-123706496D01*
X118825445Y-123674007D01*
X118874211Y-123492007D01*
X118874211Y-123492005D01*
X118875635Y-123486692D01*
X118895468Y-123260000D01*
X118875635Y-123033308D01*
X118816739Y-122813504D01*
X118732109Y-122632015D01*
X118722891Y-122612247D01*
X118722889Y-122612244D01*
X118720568Y-122607266D01*
X118590047Y-122420861D01*
X118429139Y-122259953D01*
X118242734Y-122129432D01*
X118237756Y-122127111D01*
X118237753Y-122127109D01*
X118188613Y-122104195D01*
X118135328Y-122057278D01*
X118115867Y-121989000D01*
X118136409Y-121921041D01*
X118188613Y-121875805D01*
X118237753Y-121852891D01*
X118237756Y-121852889D01*
X118242734Y-121850568D01*
X118429139Y-121720047D01*
X118590047Y-121559139D01*
X118720568Y-121372734D01*
X118738245Y-121334827D01*
X118814416Y-121171478D01*
X118814417Y-121171476D01*
X118816739Y-121166496D01*
X118862266Y-120996588D01*
X118874211Y-120952007D01*
X118874211Y-120952005D01*
X118875635Y-120946692D01*
X118887740Y-120808332D01*
X130286208Y-120808332D01*
X130305994Y-120996588D01*
X130364489Y-121176616D01*
X130459135Y-121340548D01*
X130463553Y-121345455D01*
X130463554Y-121345456D01*
X130483631Y-121367753D01*
X130585797Y-121481220D01*
X130738938Y-121592483D01*
X130911865Y-121669476D01*
X131009880Y-121690310D01*
X131090565Y-121707460D01*
X131090569Y-121707460D01*
X131097022Y-121708832D01*
X131155388Y-121708832D01*
X131223509Y-121728834D01*
X131244483Y-121745737D01*
X131843963Y-122345217D01*
X131877989Y-122407529D01*
X131872924Y-122478344D01*
X131830377Y-122535180D01*
X131763857Y-122559991D01*
X131694483Y-122544900D01*
X131680807Y-122536248D01*
X131658072Y-122519730D01*
X131658071Y-122519729D01*
X131652730Y-122515849D01*
X131479803Y-122438856D01*
X131362064Y-122413830D01*
X131301103Y-122400872D01*
X131301099Y-122400872D01*
X131294646Y-122399500D01*
X131105354Y-122399500D01*
X131098901Y-122400872D01*
X131098897Y-122400872D01*
X131037936Y-122413830D01*
X130920197Y-122438856D01*
X130747270Y-122515849D01*
X130741929Y-122519729D01*
X130741928Y-122519730D01*
X130684303Y-122561597D01*
X130594129Y-122627112D01*
X130589716Y-122632014D01*
X130589714Y-122632015D01*
X130544251Y-122682507D01*
X130467467Y-122767784D01*
X130372821Y-122931716D01*
X130314326Y-123111744D01*
X130294540Y-123300000D01*
X130295230Y-123306565D01*
X130313586Y-123481212D01*
X130314326Y-123488256D01*
X130372821Y-123668284D01*
X130467467Y-123832216D01*
X130594129Y-123972888D01*
X130747270Y-124084151D01*
X130920197Y-124161144D01*
X131022149Y-124182814D01*
X131074697Y-124193984D01*
X131137170Y-124227712D01*
X131171492Y-124289862D01*
X131174500Y-124317231D01*
X131174500Y-126722297D01*
X131173983Y-126733257D01*
X131172327Y-126740667D01*
X131172576Y-126748593D01*
X131172576Y-126748594D01*
X131174438Y-126807841D01*
X131174500Y-126811799D01*
X131174500Y-126839350D01*
X131174996Y-126843273D01*
X131175003Y-126843388D01*
X131175923Y-126855068D01*
X131177291Y-126898627D01*
X131182836Y-126917712D01*
X131186844Y-126937062D01*
X131189336Y-126956792D01*
X131205384Y-126997323D01*
X131209219Y-127008524D01*
X131221382Y-127050390D01*
X131231498Y-127067494D01*
X131240195Y-127085245D01*
X131247514Y-127103732D01*
X131273108Y-127138959D01*
X131273129Y-127138988D01*
X131279646Y-127148910D01*
X131297790Y-127179590D01*
X131297793Y-127179594D01*
X131301830Y-127186420D01*
X131315880Y-127200470D01*
X131328721Y-127215504D01*
X131340406Y-127231587D01*
X131346514Y-127236640D01*
X131373989Y-127259369D01*
X131382769Y-127267359D01*
X132602756Y-128487346D01*
X132610146Y-128495467D01*
X132614214Y-128501877D01*
X132619993Y-128507304D01*
X132663224Y-128547901D01*
X132666066Y-128550656D01*
X132685530Y-128570120D01*
X132688660Y-128572548D01*
X132688762Y-128572638D01*
X132697644Y-128580225D01*
X132729418Y-128610062D01*
X132746837Y-128619638D01*
X132763361Y-128630493D01*
X132779064Y-128642674D01*
X132819080Y-128659991D01*
X132829725Y-128665206D01*
X132860957Y-128682376D01*
X132860959Y-128682377D01*
X132867908Y-128686197D01*
X132887159Y-128691140D01*
X132905863Y-128697544D01*
X132924105Y-128705438D01*
X132967148Y-128712255D01*
X132978770Y-128714663D01*
X133013296Y-128723528D01*
X133013305Y-128723529D01*
X133020981Y-128725500D01*
X133040856Y-128725500D01*
X133060566Y-128727051D01*
X133080196Y-128730160D01*
X133088088Y-128729414D01*
X133123579Y-128726059D01*
X133135437Y-128725500D01*
X171695362Y-128725500D01*
X171763483Y-128745502D01*
X171784770Y-128763597D01*
X171784802Y-128763561D01*
X171786050Y-128764685D01*
X171789002Y-128767194D01*
X171794129Y-128772888D01*
X171799471Y-128776769D01*
X171799473Y-128776771D01*
X171819716Y-128791478D01*
X171947270Y-128884151D01*
X172120197Y-128961144D01*
X172218212Y-128981978D01*
X172298897Y-128999128D01*
X172298901Y-128999128D01*
X172305354Y-129000500D01*
X172494646Y-129000500D01*
X172501099Y-128999128D01*
X172501103Y-128999128D01*
X172581788Y-128981978D01*
X172679803Y-128961144D01*
X172852730Y-128884151D01*
X173005871Y-128772888D01*
X173045016Y-128729414D01*
X173128114Y-128637124D01*
X173128115Y-128637123D01*
X173132533Y-128632216D01*
X173207784Y-128501877D01*
X173223875Y-128474007D01*
X173223876Y-128474006D01*
X173227179Y-128468284D01*
X173285674Y-128288256D01*
X173305460Y-128100000D01*
X173285674Y-127911744D01*
X173227179Y-127731716D01*
X173132533Y-127567784D01*
X173068768Y-127496966D01*
X173010286Y-127432015D01*
X173010284Y-127432014D01*
X173005871Y-127427112D01*
X172969713Y-127400842D01*
X172858072Y-127319730D01*
X172858071Y-127319729D01*
X172852730Y-127315849D01*
X172679803Y-127238856D01*
X172569940Y-127215504D01*
X172501103Y-127200872D01*
X172501099Y-127200872D01*
X172494646Y-127199500D01*
X172305354Y-127199500D01*
X172298901Y-127200872D01*
X172298897Y-127200872D01*
X172230060Y-127215504D01*
X172120197Y-127238856D01*
X171947270Y-127315849D01*
X171941929Y-127319729D01*
X171941928Y-127319730D01*
X171799473Y-127423229D01*
X171799471Y-127423231D01*
X171794129Y-127427112D01*
X171789709Y-127432021D01*
X171789002Y-127432806D01*
X171788479Y-127433128D01*
X171784802Y-127436439D01*
X171784197Y-127435767D01*
X171728558Y-127470048D01*
X171695362Y-127474500D01*
X144427057Y-127474500D01*
X144358936Y-127454498D01*
X144312443Y-127400842D01*
X144301747Y-127335331D01*
X144304770Y-127306566D01*
X144304770Y-127306565D01*
X144305460Y-127300000D01*
X144295697Y-127207109D01*
X144286364Y-127118307D01*
X144286364Y-127118305D01*
X144285674Y-127111744D01*
X144227179Y-126931716D01*
X144132533Y-126767784D01*
X144091576Y-126722297D01*
X144010286Y-126632015D01*
X144010284Y-126632014D01*
X144005871Y-126627112D01*
X143852730Y-126515849D01*
X143679803Y-126438856D01*
X143581788Y-126418022D01*
X143501103Y-126400872D01*
X143501099Y-126400872D01*
X143494646Y-126399500D01*
X143305354Y-126399500D01*
X143298901Y-126400872D01*
X143298897Y-126400872D01*
X143218212Y-126418022D01*
X143120197Y-126438856D01*
X142947270Y-126515849D01*
X142941929Y-126519729D01*
X142941928Y-126519730D01*
X142799473Y-126623229D01*
X142799471Y-126623231D01*
X142794129Y-126627112D01*
X142789709Y-126632021D01*
X142789002Y-126632806D01*
X142788479Y-126633128D01*
X142784802Y-126636439D01*
X142784197Y-126635767D01*
X142728558Y-126670048D01*
X142695362Y-126674500D01*
X134411281Y-126674500D01*
X134343160Y-126654498D01*
X134322185Y-126637595D01*
X133662404Y-125977813D01*
X133628379Y-125915501D01*
X133625500Y-125888718D01*
X133625500Y-122694367D01*
X133626017Y-122683407D01*
X133627673Y-122675997D01*
X133625562Y-122608809D01*
X133625500Y-122604852D01*
X133625500Y-122577314D01*
X133625003Y-122573383D01*
X133624995Y-122573252D01*
X133624078Y-122561597D01*
X133622959Y-122525958D01*
X133622959Y-122525957D01*
X133622710Y-122518037D01*
X133617165Y-122498951D01*
X133613156Y-122479592D01*
X133611659Y-122467743D01*
X133611657Y-122467737D01*
X133610664Y-122459872D01*
X133594622Y-122419356D01*
X133590776Y-122408123D01*
X133580829Y-122373886D01*
X133578618Y-122366274D01*
X133568500Y-122349165D01*
X133559805Y-122331419D01*
X133552486Y-122312932D01*
X133526869Y-122277673D01*
X133520354Y-122267754D01*
X133502210Y-122237074D01*
X133502207Y-122237070D01*
X133498170Y-122230244D01*
X133484120Y-122216194D01*
X133471279Y-122201160D01*
X133464254Y-122191491D01*
X133459594Y-122185077D01*
X133430792Y-122161250D01*
X143700000Y-122161250D01*
X153860000Y-122161250D01*
X153860000Y-121961250D01*
X172562500Y-121961250D01*
X182722500Y-121961250D01*
X182722500Y-115611250D01*
X172562500Y-115611250D01*
X172562500Y-121961250D01*
X153860000Y-121961250D01*
X153860000Y-115811250D01*
X143700000Y-115811250D01*
X143700000Y-122161250D01*
X133430792Y-122161250D01*
X133426010Y-122157294D01*
X133417231Y-122149305D01*
X132131130Y-120863203D01*
X132097104Y-120800891D01*
X132094915Y-120787278D01*
X132078032Y-120626639D01*
X132078032Y-120626637D01*
X132077342Y-120620076D01*
X132018847Y-120440048D01*
X131924201Y-120276116D01*
X131919782Y-120271208D01*
X131801954Y-120140347D01*
X131801952Y-120140346D01*
X131797539Y-120135444D01*
X131792200Y-120131565D01*
X131649740Y-120028062D01*
X131649739Y-120028061D01*
X131644398Y-120024181D01*
X131471471Y-119947188D01*
X131373456Y-119926354D01*
X131292771Y-119909204D01*
X131292767Y-119909204D01*
X131286314Y-119907832D01*
X131097022Y-119907832D01*
X131090569Y-119909204D01*
X131090565Y-119909204D01*
X131009880Y-119926354D01*
X130911865Y-119947188D01*
X130738938Y-120024181D01*
X130733597Y-120028061D01*
X130733596Y-120028062D01*
X130591136Y-120131565D01*
X130585797Y-120135444D01*
X130581384Y-120140346D01*
X130581382Y-120140347D01*
X130463554Y-120271208D01*
X130459135Y-120276116D01*
X130364489Y-120440048D01*
X130305994Y-120620076D01*
X130286208Y-120808332D01*
X118887740Y-120808332D01*
X118895468Y-120720000D01*
X118875635Y-120493308D01*
X118816739Y-120273504D01*
X118814416Y-120268522D01*
X118722891Y-120072247D01*
X118722889Y-120072244D01*
X118720568Y-120067266D01*
X118590047Y-119880861D01*
X118429139Y-119719953D01*
X118242734Y-119589432D01*
X118237756Y-119587111D01*
X118237753Y-119587109D01*
X118188613Y-119564195D01*
X118135328Y-119517278D01*
X118115867Y-119449000D01*
X118136409Y-119381041D01*
X118188613Y-119335805D01*
X118237753Y-119312891D01*
X118237756Y-119312889D01*
X118242734Y-119310568D01*
X118429139Y-119180047D01*
X118590047Y-119019139D01*
X118720568Y-118832734D01*
X118816739Y-118626496D01*
X118875635Y-118406692D01*
X118895468Y-118180000D01*
X118875635Y-117953308D01*
X118816739Y-117733504D01*
X118720568Y-117527266D01*
X118590047Y-117340861D01*
X118429139Y-117179953D01*
X118242734Y-117049432D01*
X118237756Y-117047111D01*
X118237753Y-117047109D01*
X118188613Y-117024195D01*
X118135328Y-116977278D01*
X118115867Y-116909000D01*
X118136409Y-116841041D01*
X118188613Y-116795805D01*
X118237753Y-116772891D01*
X118237756Y-116772889D01*
X118242734Y-116770568D01*
X118429139Y-116640047D01*
X118590047Y-116479139D01*
X118720568Y-116292734D01*
X118816739Y-116086496D01*
X118875635Y-115866692D01*
X118895468Y-115640000D01*
X118875635Y-115413308D01*
X118816739Y-115193504D01*
X118720568Y-114987266D01*
X118590047Y-114800861D01*
X118429139Y-114639953D01*
X118242734Y-114509432D01*
X118237756Y-114507111D01*
X118237753Y-114507109D01*
X118188613Y-114484195D01*
X118135328Y-114437278D01*
X118115867Y-114369000D01*
X118136409Y-114301041D01*
X118188613Y-114255805D01*
X118237753Y-114232891D01*
X118237756Y-114232889D01*
X118242734Y-114230568D01*
X118429139Y-114100047D01*
X118590047Y-113939139D01*
X118720568Y-113752734D01*
X118816739Y-113546496D01*
X118875635Y-113326692D01*
X118895468Y-113100000D01*
X118875635Y-112873308D01*
X118816739Y-112653504D01*
X118720568Y-112447266D01*
X118590047Y-112260861D01*
X118429139Y-112099953D01*
X118242734Y-111969432D01*
X118237756Y-111967111D01*
X118237753Y-111967109D01*
X118188613Y-111944195D01*
X118135328Y-111897278D01*
X118115867Y-111829000D01*
X118136409Y-111761041D01*
X118188613Y-111715805D01*
X118237753Y-111692891D01*
X118237756Y-111692889D01*
X118242734Y-111690568D01*
X118429139Y-111560047D01*
X118590047Y-111399139D01*
X118720568Y-111212734D01*
X118816739Y-111006496D01*
X118875635Y-110786692D01*
X118895468Y-110560000D01*
X118875635Y-110333308D01*
X118816739Y-110113504D01*
X118720568Y-109907266D01*
X118590047Y-109720861D01*
X118429139Y-109559953D01*
X118242734Y-109429432D01*
X118237756Y-109427111D01*
X118237753Y-109427109D01*
X118041478Y-109335584D01*
X118041476Y-109335583D01*
X118036496Y-109333261D01*
X118031188Y-109331839D01*
X118031186Y-109331838D01*
X117822007Y-109275789D01*
X117822005Y-109275789D01*
X117816692Y-109274365D01*
X117717698Y-109265704D01*
X117649508Y-109259738D01*
X117649501Y-109259738D01*
X117646784Y-109259500D01*
X117133216Y-109259500D01*
X117130499Y-109259738D01*
X117130492Y-109259738D01*
X117062302Y-109265704D01*
X116963308Y-109274365D01*
X116957995Y-109275789D01*
X116957993Y-109275789D01*
X116748814Y-109331838D01*
X116748812Y-109331839D01*
X116743504Y-109333261D01*
X116738524Y-109335583D01*
X116738522Y-109335584D01*
X116542247Y-109427109D01*
X116542244Y-109427111D01*
X116537266Y-109429432D01*
X116350861Y-109559953D01*
X116189953Y-109720861D01*
X116059432Y-109907266D01*
X115963261Y-110113504D01*
X115904365Y-110333308D01*
X115884532Y-110560000D01*
X115904365Y-110786692D01*
X115963261Y-111006496D01*
X116059432Y-111212734D01*
X116189953Y-111399139D01*
X116350861Y-111560047D01*
X116537266Y-111690568D01*
X116542244Y-111692889D01*
X116542247Y-111692891D01*
X116591387Y-111715805D01*
X116644672Y-111762722D01*
X116664133Y-111831000D01*
X116643591Y-111898959D01*
X116591387Y-111944195D01*
X116542247Y-111967109D01*
X116542244Y-111967111D01*
X116537266Y-111969432D01*
X116350861Y-112099953D01*
X116189953Y-112260861D01*
X116059432Y-112447266D01*
X115963261Y-112653504D01*
X115904365Y-112873308D01*
X115884532Y-113100000D01*
X115904365Y-113326692D01*
X115963261Y-113546496D01*
X116059432Y-113752734D01*
X116189953Y-113939139D01*
X116350861Y-114100047D01*
X116537266Y-114230568D01*
X116542244Y-114232889D01*
X116542247Y-114232891D01*
X116591387Y-114255805D01*
X116644672Y-114302722D01*
X116664133Y-114371000D01*
X116643591Y-114438959D01*
X116591387Y-114484195D01*
X116542247Y-114507109D01*
X116542244Y-114507111D01*
X116537266Y-114509432D01*
X116350861Y-114639953D01*
X116189953Y-114800861D01*
X116059432Y-114987266D01*
X115963261Y-115193504D01*
X115904365Y-115413308D01*
X115884532Y-115640000D01*
X115904365Y-115866692D01*
X115963261Y-116086496D01*
X116059432Y-116292734D01*
X116189953Y-116479139D01*
X116350861Y-116640047D01*
X116537266Y-116770568D01*
X116542244Y-116772889D01*
X116542247Y-116772891D01*
X116591387Y-116795805D01*
X116644672Y-116842722D01*
X116664133Y-116911000D01*
X116643591Y-116978959D01*
X116591387Y-117024195D01*
X116542247Y-117047109D01*
X116542244Y-117047111D01*
X116537266Y-117049432D01*
X116350861Y-117179953D01*
X116189953Y-117340861D01*
X116059432Y-117527266D01*
X115963261Y-117733504D01*
X115904365Y-117953308D01*
X115884532Y-118180000D01*
X115904365Y-118406692D01*
X115963261Y-118626496D01*
X116059432Y-118832734D01*
X116189953Y-119019139D01*
X116350861Y-119180047D01*
X116537266Y-119310568D01*
X116542244Y-119312889D01*
X116542247Y-119312891D01*
X116591387Y-119335805D01*
X116644672Y-119382722D01*
X116664133Y-119451000D01*
X116643591Y-119518959D01*
X116591387Y-119564195D01*
X116542247Y-119587109D01*
X116542244Y-119587111D01*
X116537266Y-119589432D01*
X116350861Y-119719953D01*
X116189953Y-119880861D01*
X116059432Y-120067266D01*
X116057111Y-120072244D01*
X116057109Y-120072247D01*
X115965584Y-120268522D01*
X115963261Y-120273504D01*
X115904365Y-120493308D01*
X115884532Y-120720000D01*
X115904365Y-120946692D01*
X115905789Y-120952005D01*
X115905789Y-120952007D01*
X115917735Y-120996588D01*
X115963261Y-121166496D01*
X115965583Y-121171476D01*
X115965584Y-121171478D01*
X116041756Y-121334827D01*
X116059432Y-121372734D01*
X116189953Y-121559139D01*
X116350861Y-121720047D01*
X116537266Y-121850568D01*
X116542244Y-121852889D01*
X116542247Y-121852891D01*
X116591387Y-121875805D01*
X116644672Y-121922722D01*
X116664133Y-121991000D01*
X116643591Y-122058959D01*
X116591387Y-122104195D01*
X116542247Y-122127109D01*
X116542244Y-122127111D01*
X116537266Y-122129432D01*
X116350861Y-122259953D01*
X116189953Y-122420861D01*
X116059432Y-122607266D01*
X116057111Y-122612244D01*
X116057109Y-122612247D01*
X116047891Y-122632015D01*
X115963261Y-122813504D01*
X115904365Y-123033308D01*
X115884532Y-123260000D01*
X96035468Y-123260000D01*
X96015635Y-123033308D01*
X95956739Y-122813504D01*
X95872109Y-122632015D01*
X95862891Y-122612247D01*
X95862889Y-122612244D01*
X95860568Y-122607266D01*
X95730047Y-122420861D01*
X95569139Y-122259953D01*
X95382734Y-122129432D01*
X95377756Y-122127111D01*
X95377753Y-122127109D01*
X95328613Y-122104195D01*
X95275328Y-122057278D01*
X95255867Y-121989000D01*
X95276409Y-121921041D01*
X95328613Y-121875805D01*
X95377753Y-121852891D01*
X95377756Y-121852889D01*
X95382734Y-121850568D01*
X95569139Y-121720047D01*
X95730047Y-121559139D01*
X95860568Y-121372734D01*
X95878245Y-121334827D01*
X95954416Y-121171478D01*
X95954417Y-121171476D01*
X95956739Y-121166496D01*
X96002266Y-120996588D01*
X96014211Y-120952007D01*
X96014211Y-120952005D01*
X96015635Y-120946692D01*
X96035468Y-120720000D01*
X96015635Y-120493308D01*
X95956739Y-120273504D01*
X95954416Y-120268522D01*
X95862891Y-120072247D01*
X95862889Y-120072244D01*
X95860568Y-120067266D01*
X95730047Y-119880861D01*
X95569139Y-119719953D01*
X95382734Y-119589432D01*
X95377756Y-119587111D01*
X95377753Y-119587109D01*
X95328613Y-119564195D01*
X95275328Y-119517278D01*
X95255867Y-119449000D01*
X95276409Y-119381041D01*
X95328613Y-119335805D01*
X95377753Y-119312891D01*
X95377756Y-119312889D01*
X95382734Y-119310568D01*
X95569139Y-119180047D01*
X95730047Y-119019139D01*
X95860568Y-118832734D01*
X95956739Y-118626496D01*
X96015635Y-118406692D01*
X96035468Y-118180000D01*
X96015635Y-117953308D01*
X95956739Y-117733504D01*
X95860568Y-117527266D01*
X95730047Y-117340861D01*
X95569139Y-117179953D01*
X95382734Y-117049432D01*
X95377756Y-117047111D01*
X95377753Y-117047109D01*
X95328613Y-117024195D01*
X95275328Y-116977278D01*
X95255867Y-116909000D01*
X95276409Y-116841041D01*
X95328613Y-116795805D01*
X95377753Y-116772891D01*
X95377756Y-116772889D01*
X95382734Y-116770568D01*
X95569139Y-116640047D01*
X95730047Y-116479139D01*
X95860568Y-116292734D01*
X95956739Y-116086496D01*
X96015635Y-115866692D01*
X96035468Y-115640000D01*
X96015635Y-115413308D01*
X95956739Y-115193504D01*
X95860568Y-114987266D01*
X95730047Y-114800861D01*
X95569139Y-114639953D01*
X95382734Y-114509432D01*
X95377756Y-114507111D01*
X95377753Y-114507109D01*
X95328613Y-114484195D01*
X95275328Y-114437278D01*
X95255867Y-114369000D01*
X95276409Y-114301041D01*
X95328613Y-114255805D01*
X95377753Y-114232891D01*
X95377756Y-114232889D01*
X95382734Y-114230568D01*
X95569139Y-114100047D01*
X95730047Y-113939139D01*
X95860568Y-113752734D01*
X95956739Y-113546496D01*
X96015635Y-113326692D01*
X96035468Y-113100000D01*
X96015635Y-112873308D01*
X95956739Y-112653504D01*
X95860568Y-112447266D01*
X95730047Y-112260861D01*
X95692923Y-112223737D01*
X95658897Y-112161425D01*
X95663962Y-112090610D01*
X95706509Y-112033774D01*
X95737789Y-112016660D01*
X95745232Y-112013870D01*
X95772824Y-112003526D01*
X95780003Y-111998146D01*
X95780006Y-111998144D01*
X95880365Y-111922928D01*
X95887546Y-111917546D01*
X95920736Y-111873261D01*
X95968144Y-111810006D01*
X95968146Y-111810003D01*
X95973526Y-111802824D01*
X96023851Y-111668580D01*
X96030500Y-111607377D01*
X96030499Y-109512624D01*
X96023851Y-109451420D01*
X95973526Y-109317176D01*
X95968146Y-109309997D01*
X95968144Y-109309994D01*
X95892928Y-109209635D01*
X95887546Y-109202454D01*
X95880365Y-109197072D01*
X95780006Y-109121856D01*
X95780003Y-109121854D01*
X95772824Y-109116474D01*
X95683439Y-109082966D01*
X95645975Y-109068921D01*
X95645973Y-109068921D01*
X95638580Y-109066149D01*
X95630730Y-109065296D01*
X95630729Y-109065296D01*
X95580774Y-109059869D01*
X95580773Y-109059869D01*
X95577377Y-109059500D01*
X94530154Y-109059500D01*
X93482624Y-109059501D01*
X93479230Y-109059870D01*
X93479224Y-109059870D01*
X93429278Y-109065295D01*
X93429274Y-109065296D01*
X93421420Y-109066149D01*
X93287176Y-109116474D01*
X93279997Y-109121854D01*
X93279994Y-109121856D01*
X93179635Y-109197072D01*
X93172454Y-109202454D01*
X93167072Y-109209635D01*
X93091856Y-109309994D01*
X93091854Y-109309997D01*
X93086474Y-109317176D01*
X93036149Y-109451420D01*
X93029500Y-109512623D01*
X93029501Y-111607376D01*
X93036149Y-111668580D01*
X93086474Y-111802824D01*
X93091854Y-111810003D01*
X93091856Y-111810006D01*
X93139264Y-111873261D01*
X93172454Y-111917546D01*
X93179635Y-111922928D01*
X93279994Y-111998144D01*
X93279997Y-111998146D01*
X93287176Y-112003526D01*
X93314768Y-112013870D01*
X93322211Y-112016660D01*
X93378976Y-112059301D01*
X93403676Y-112125863D01*
X93388469Y-112195212D01*
X93367077Y-112223737D01*
X93329953Y-112260861D01*
X93199432Y-112447266D01*
X93103261Y-112653504D01*
X93044365Y-112873308D01*
X93024532Y-113100000D01*
X93044365Y-113326692D01*
X93103261Y-113546496D01*
X93199432Y-113752734D01*
X93329953Y-113939139D01*
X93490861Y-114100047D01*
X93677266Y-114230568D01*
X93682244Y-114232889D01*
X93682247Y-114232891D01*
X93731387Y-114255805D01*
X93784672Y-114302722D01*
X93804133Y-114371000D01*
X93783591Y-114438959D01*
X93731387Y-114484195D01*
X93682247Y-114507109D01*
X93682244Y-114507111D01*
X93677266Y-114509432D01*
X93490861Y-114639953D01*
X93329953Y-114800861D01*
X93199432Y-114987266D01*
X93103261Y-115193504D01*
X93044365Y-115413308D01*
X93024532Y-115640000D01*
X93044365Y-115866692D01*
X93103261Y-116086496D01*
X93199432Y-116292734D01*
X93329953Y-116479139D01*
X93490861Y-116640047D01*
X93677266Y-116770568D01*
X93682244Y-116772889D01*
X93682247Y-116772891D01*
X93731387Y-116795805D01*
X93784672Y-116842722D01*
X93804133Y-116911000D01*
X93783591Y-116978959D01*
X93731387Y-117024195D01*
X93682247Y-117047109D01*
X93682244Y-117047111D01*
X93677266Y-117049432D01*
X93490861Y-117179953D01*
X93329953Y-117340861D01*
X93199432Y-117527266D01*
X93103261Y-117733504D01*
X93044365Y-117953308D01*
X93024532Y-118180000D01*
X93044365Y-118406692D01*
X93103261Y-118626496D01*
X93199432Y-118832734D01*
X93329953Y-119019139D01*
X93490861Y-119180047D01*
X93677266Y-119310568D01*
X93682244Y-119312889D01*
X93682247Y-119312891D01*
X93731387Y-119335805D01*
X93784672Y-119382722D01*
X93804133Y-119451000D01*
X93783591Y-119518959D01*
X93731387Y-119564195D01*
X93682247Y-119587109D01*
X93682244Y-119587111D01*
X93677266Y-119589432D01*
X93490861Y-119719953D01*
X93329953Y-119880861D01*
X93199432Y-120067266D01*
X93197111Y-120072244D01*
X93197109Y-120072247D01*
X93105584Y-120268522D01*
X93103261Y-120273504D01*
X93044365Y-120493308D01*
X93024532Y-120720000D01*
X93044365Y-120946692D01*
X93045789Y-120952005D01*
X93045789Y-120952007D01*
X93057735Y-120996588D01*
X93103261Y-121166496D01*
X93105583Y-121171476D01*
X93105584Y-121171478D01*
X93181756Y-121334827D01*
X93199432Y-121372734D01*
X93329953Y-121559139D01*
X93490861Y-121720047D01*
X93677266Y-121850568D01*
X93682244Y-121852889D01*
X93682247Y-121852891D01*
X93731387Y-121875805D01*
X93784672Y-121922722D01*
X93804133Y-121991000D01*
X93783591Y-122058959D01*
X93731387Y-122104195D01*
X93682247Y-122127109D01*
X93682244Y-122127111D01*
X93677266Y-122129432D01*
X93490861Y-122259953D01*
X93329953Y-122420861D01*
X93199432Y-122607266D01*
X93197111Y-122612244D01*
X93197109Y-122612247D01*
X93187891Y-122632015D01*
X93103261Y-122813504D01*
X93044365Y-123033308D01*
X93024532Y-123260000D01*
X93044365Y-123486692D01*
X93045789Y-123492005D01*
X93045789Y-123492007D01*
X93094556Y-123674007D01*
X93103261Y-123706496D01*
X93105583Y-123711476D01*
X93105584Y-123711478D01*
X93161886Y-123832216D01*
X93199432Y-123912734D01*
X93329953Y-124099139D01*
X93490861Y-124260047D01*
X93677266Y-124390568D01*
X93682244Y-124392889D01*
X93682247Y-124392891D01*
X93731387Y-124415805D01*
X93784672Y-124462722D01*
X93804133Y-124531000D01*
X93783591Y-124598959D01*
X93731387Y-124644195D01*
X93682247Y-124667109D01*
X93682244Y-124667111D01*
X93677266Y-124669432D01*
X93490861Y-124799953D01*
X93329953Y-124960861D01*
X93199432Y-125147266D01*
X93103261Y-125353504D01*
X93044365Y-125573308D01*
X93024532Y-125800000D01*
X93044365Y-126026692D01*
X93103261Y-126246496D01*
X93105583Y-126251476D01*
X93105584Y-126251478D01*
X93192961Y-126438856D01*
X93199432Y-126452734D01*
X93329953Y-126639139D01*
X93490861Y-126800047D01*
X93677266Y-126930568D01*
X93682244Y-126932889D01*
X93682247Y-126932891D01*
X93731387Y-126955805D01*
X93784672Y-127002722D01*
X93804133Y-127071000D01*
X93783591Y-127138959D01*
X93731387Y-127184195D01*
X93682247Y-127207109D01*
X93682244Y-127207111D01*
X93677266Y-127209432D01*
X93490861Y-127339953D01*
X93329953Y-127500861D01*
X93199432Y-127687266D01*
X93197111Y-127692244D01*
X93197109Y-127692247D01*
X93105584Y-127888522D01*
X93103261Y-127893504D01*
X93101839Y-127898812D01*
X93101838Y-127898814D01*
X93096615Y-127918307D01*
X93044365Y-128113308D01*
X93024532Y-128340000D01*
X90475500Y-128340000D01*
X90475500Y-106600000D01*
X146194540Y-106600000D01*
X146214326Y-106788256D01*
X146272821Y-106968284D01*
X146367467Y-107132216D01*
X146371885Y-107137123D01*
X146371886Y-107137124D01*
X146451461Y-107225500D01*
X146494129Y-107272888D01*
X146647270Y-107384151D01*
X146820197Y-107461144D01*
X146918212Y-107481978D01*
X146998897Y-107499128D01*
X146998901Y-107499128D01*
X147005354Y-107500500D01*
X147194646Y-107500500D01*
X147201099Y-107499128D01*
X147201103Y-107499128D01*
X147281788Y-107481978D01*
X147379803Y-107461144D01*
X147552730Y-107384151D01*
X147558072Y-107380270D01*
X147700527Y-107276771D01*
X147700529Y-107276769D01*
X147705871Y-107272888D01*
X147710998Y-107267194D01*
X147711521Y-107266872D01*
X147715198Y-107263561D01*
X147715803Y-107264233D01*
X147771442Y-107229952D01*
X147804638Y-107225500D01*
X164995362Y-107225500D01*
X165063483Y-107245502D01*
X165084770Y-107263597D01*
X165084802Y-107263561D01*
X165086050Y-107264685D01*
X165089002Y-107267194D01*
X165094129Y-107272888D01*
X165099471Y-107276769D01*
X165099473Y-107276771D01*
X165241928Y-107380270D01*
X165247270Y-107384151D01*
X165420197Y-107461144D01*
X165518212Y-107481978D01*
X165598897Y-107499128D01*
X165598901Y-107499128D01*
X165605354Y-107500500D01*
X165794646Y-107500500D01*
X165801099Y-107499128D01*
X165801103Y-107499128D01*
X165881788Y-107481978D01*
X165979803Y-107461144D01*
X166152730Y-107384151D01*
X166305871Y-107272888D01*
X166348540Y-107225500D01*
X166428114Y-107137124D01*
X166428115Y-107137123D01*
X166432533Y-107132216D01*
X166527179Y-106968284D01*
X166585674Y-106788256D01*
X166605460Y-106600000D01*
X166585674Y-106411744D01*
X166527179Y-106231716D01*
X166432533Y-106067784D01*
X166428114Y-106062876D01*
X166310286Y-105932015D01*
X166310284Y-105932014D01*
X166305871Y-105927112D01*
X166152730Y-105815849D01*
X165979803Y-105738856D01*
X165881788Y-105718022D01*
X165801103Y-105700872D01*
X165801099Y-105700872D01*
X165794646Y-105699500D01*
X165605354Y-105699500D01*
X165598901Y-105700872D01*
X165598897Y-105700872D01*
X165518212Y-105718022D01*
X165420197Y-105738856D01*
X165247270Y-105815849D01*
X165241929Y-105819729D01*
X165241928Y-105819730D01*
X165099473Y-105923229D01*
X165099471Y-105923231D01*
X165094129Y-105927112D01*
X165089709Y-105932021D01*
X165089002Y-105932806D01*
X165088479Y-105933128D01*
X165084802Y-105936439D01*
X165084197Y-105935767D01*
X165028558Y-105970048D01*
X164995362Y-105974500D01*
X147804638Y-105974500D01*
X147736517Y-105954498D01*
X147715230Y-105936403D01*
X147715198Y-105936439D01*
X147713950Y-105935315D01*
X147710998Y-105932806D01*
X147710291Y-105932021D01*
X147705871Y-105927112D01*
X147700529Y-105923231D01*
X147700527Y-105923229D01*
X147558072Y-105819730D01*
X147558071Y-105819729D01*
X147552730Y-105815849D01*
X147379803Y-105738856D01*
X147281788Y-105718022D01*
X147201103Y-105700872D01*
X147201099Y-105700872D01*
X147194646Y-105699500D01*
X147005354Y-105699500D01*
X146998901Y-105700872D01*
X146998897Y-105700872D01*
X146918212Y-105718022D01*
X146820197Y-105738856D01*
X146647270Y-105815849D01*
X146494129Y-105927112D01*
X146489716Y-105932014D01*
X146489714Y-105932015D01*
X146371886Y-106062876D01*
X146367467Y-106067784D01*
X146272821Y-106231716D01*
X146214326Y-106411744D01*
X146194540Y-106600000D01*
X90475500Y-106600000D01*
X90475500Y-100311250D01*
X143700000Y-100311250D01*
X153860000Y-100311250D01*
X153860000Y-100111250D01*
X172562500Y-100111250D01*
X182722500Y-100111250D01*
X182722500Y-93761250D01*
X172562500Y-93761250D01*
X172562500Y-100111250D01*
X153860000Y-100111250D01*
X153860000Y-93961250D01*
X143700000Y-93961250D01*
X143700000Y-100311250D01*
X90475500Y-100311250D01*
X90475500Y-86005028D01*
X93398025Y-86005028D01*
X93435347Y-86248930D01*
X93512003Y-86483460D01*
X93625935Y-86702321D01*
X93774083Y-86899636D01*
X93952468Y-87070104D01*
X93956740Y-87073018D01*
X93956741Y-87073019D01*
X93985893Y-87092905D01*
X94156300Y-87209149D01*
X94268202Y-87261092D01*
X94375409Y-87310856D01*
X94375413Y-87310857D01*
X94380104Y-87313035D01*
X94617871Y-87378974D01*
X94623008Y-87379523D01*
X94815957Y-87400144D01*
X94815965Y-87400144D01*
X94819292Y-87400500D01*
X96562554Y-87400500D01*
X96565127Y-87400288D01*
X96565138Y-87400288D01*
X96740760Y-87385849D01*
X96740766Y-87385848D01*
X96745911Y-87385425D01*
X96985217Y-87325316D01*
X97211493Y-87226928D01*
X97418661Y-87092905D01*
X97440516Y-87073019D01*
X97476536Y-87040243D01*
X97601158Y-86926846D01*
X97604357Y-86922795D01*
X97604361Y-86922791D01*
X97750881Y-86737264D01*
X97750884Y-86737259D01*
X97754082Y-86733210D01*
X97756577Y-86728691D01*
X97870830Y-86521722D01*
X97870832Y-86521718D01*
X97873327Y-86517198D01*
X97885275Y-86483460D01*
X97953965Y-86289485D01*
X97953966Y-86289481D01*
X97955691Y-86284610D01*
X97998961Y-86041694D01*
X98001975Y-85794972D01*
X97964653Y-85551070D01*
X97887997Y-85316540D01*
X97774065Y-85097679D01*
X97625917Y-84900364D01*
X97447532Y-84729896D01*
X97419212Y-84710577D01*
X97247979Y-84593770D01*
X97247980Y-84593770D01*
X97243700Y-84590851D01*
X97131798Y-84538908D01*
X97024591Y-84489144D01*
X97024587Y-84489143D01*
X97019896Y-84486965D01*
X96782129Y-84421026D01*
X96776992Y-84420477D01*
X96584043Y-84399856D01*
X96584035Y-84399856D01*
X96580708Y-84399500D01*
X94837446Y-84399500D01*
X94834873Y-84399712D01*
X94834862Y-84399712D01*
X94659240Y-84414151D01*
X94659234Y-84414152D01*
X94654089Y-84414575D01*
X94414783Y-84474684D01*
X94188507Y-84573072D01*
X93981339Y-84707095D01*
X93977514Y-84710575D01*
X93977512Y-84710577D01*
X93956281Y-84729896D01*
X93798842Y-84873154D01*
X93795643Y-84877205D01*
X93795639Y-84877209D01*
X93649119Y-85062736D01*
X93649116Y-85062741D01*
X93645918Y-85066790D01*
X93643425Y-85071306D01*
X93643423Y-85071309D01*
X93631150Y-85093543D01*
X93526673Y-85282802D01*
X93524949Y-85287671D01*
X93524947Y-85287675D01*
X93512984Y-85321458D01*
X93444309Y-85515390D01*
X93401039Y-85758306D01*
X93398025Y-86005028D01*
X90475500Y-86005028D01*
X90475500Y-73682217D01*
X90495502Y-73614096D01*
X90549158Y-73567603D01*
X90619432Y-73557499D01*
X90684012Y-73586993D01*
X90722396Y-73646719D01*
X90727457Y-73678919D01*
X90729683Y-73763928D01*
X90730193Y-73767513D01*
X90730194Y-73767522D01*
X90736978Y-73815186D01*
X90776001Y-74089377D01*
X90776920Y-74092880D01*
X90776921Y-74092885D01*
X90801773Y-74187615D01*
X90859419Y-74407346D01*
X90978830Y-74713619D01*
X90987558Y-74730104D01*
X91103685Y-74949429D01*
X91132652Y-75004139D01*
X91134702Y-75007122D01*
X91134704Y-75007125D01*
X91316789Y-75272061D01*
X91316795Y-75272068D01*
X91318846Y-75275053D01*
X91359048Y-75321137D01*
X91522680Y-75508711D01*
X91534944Y-75522770D01*
X91778082Y-75744009D01*
X91781040Y-75746134D01*
X91781043Y-75746137D01*
X91945932Y-75864622D01*
X92045037Y-75935836D01*
X92332271Y-76095708D01*
X92635977Y-76221507D01*
X92639471Y-76222502D01*
X92639473Y-76222503D01*
X92948628Y-76310568D01*
X92948633Y-76310569D01*
X92952129Y-76311565D01*
X93175175Y-76348090D01*
X93272957Y-76364103D01*
X93272961Y-76364103D01*
X93276537Y-76364689D01*
X93280163Y-76364860D01*
X93601273Y-76380003D01*
X93601274Y-76380003D01*
X93604900Y-76380174D01*
X93618719Y-76379232D01*
X93929237Y-76358064D01*
X93929245Y-76358063D01*
X93932868Y-76357816D01*
X93936444Y-76357153D01*
X93936446Y-76357153D01*
X93960888Y-76352623D01*
X120384285Y-76352623D01*
X120384286Y-78847376D01*
X120390934Y-78908580D01*
X120441259Y-79042824D01*
X120446639Y-79050003D01*
X120446641Y-79050006D01*
X120521857Y-79150365D01*
X120527239Y-79157546D01*
X120534420Y-79162928D01*
X120634779Y-79238144D01*
X120634782Y-79238146D01*
X120641961Y-79243526D01*
X120731346Y-79277034D01*
X120768810Y-79291079D01*
X120768812Y-79291079D01*
X120776205Y-79293851D01*
X120784055Y-79294704D01*
X120784056Y-79294704D01*
X120834002Y-79300130D01*
X120837408Y-79300500D01*
X122084602Y-79300500D01*
X123332161Y-79300499D01*
X123335555Y-79300130D01*
X123335561Y-79300130D01*
X123385507Y-79294705D01*
X123385511Y-79294704D01*
X123393365Y-79293851D01*
X123527609Y-79243526D01*
X123534788Y-79238146D01*
X123534791Y-79238144D01*
X123635150Y-79162928D01*
X123642331Y-79157546D01*
X123647713Y-79150365D01*
X123722929Y-79050006D01*
X123722931Y-79050003D01*
X123728311Y-79042824D01*
X123778636Y-78908580D01*
X123785285Y-78847377D01*
X123785284Y-76352624D01*
X123785284Y-76352623D01*
X134384285Y-76352623D01*
X134384286Y-78847376D01*
X134390934Y-78908580D01*
X134441259Y-79042824D01*
X134446639Y-79050003D01*
X134446641Y-79050006D01*
X134521857Y-79150365D01*
X134527239Y-79157546D01*
X134534420Y-79162928D01*
X134634779Y-79238144D01*
X134634782Y-79238146D01*
X134641961Y-79243526D01*
X134731346Y-79277034D01*
X134768810Y-79291079D01*
X134768812Y-79291079D01*
X134776205Y-79293851D01*
X134784055Y-79294704D01*
X134784056Y-79294704D01*
X134834002Y-79300130D01*
X134837408Y-79300500D01*
X136084602Y-79300500D01*
X137332161Y-79300499D01*
X137335555Y-79300130D01*
X137335561Y-79300130D01*
X137385507Y-79294705D01*
X137385511Y-79294704D01*
X137393365Y-79293851D01*
X137527609Y-79243526D01*
X137534788Y-79238146D01*
X137534791Y-79238144D01*
X137635150Y-79162928D01*
X137642331Y-79157546D01*
X137647713Y-79150365D01*
X137722929Y-79050006D01*
X137722931Y-79050003D01*
X137728311Y-79042824D01*
X137778636Y-78908580D01*
X137785285Y-78847377D01*
X137785285Y-77649866D01*
X151549500Y-77649866D01*
X151549837Y-77653112D01*
X151549837Y-77653116D01*
X151559515Y-77746383D01*
X151560359Y-77754519D01*
X151562540Y-77761055D01*
X151562540Y-77761057D01*
X151574709Y-77797532D01*
X151615744Y-77920529D01*
X151707834Y-78069345D01*
X151831689Y-78192984D01*
X151980666Y-78284814D01*
X151987614Y-78287119D01*
X151987615Y-78287119D01*
X152140241Y-78337744D01*
X152140243Y-78337745D01*
X152146772Y-78339910D01*
X152250134Y-78350500D01*
X153849866Y-78350500D01*
X153853112Y-78350163D01*
X153853116Y-78350163D01*
X153947661Y-78340353D01*
X153947665Y-78340352D01*
X153954519Y-78339641D01*
X153961055Y-78337460D01*
X153961057Y-78337460D01*
X154113581Y-78286574D01*
X154120529Y-78284256D01*
X154269345Y-78192166D01*
X154392984Y-78068311D01*
X154484814Y-77919334D01*
X154539910Y-77753228D01*
X154550500Y-77649866D01*
X154550500Y-76912554D01*
X156549500Y-76912554D01*
X156549712Y-76915127D01*
X156549712Y-76915138D01*
X156564151Y-77090760D01*
X156564152Y-77090766D01*
X156564575Y-77095911D01*
X156624684Y-77335217D01*
X156723072Y-77561493D01*
X156857095Y-77768661D01*
X156860575Y-77772486D01*
X156860577Y-77772488D01*
X156886766Y-77801269D01*
X157023154Y-77951158D01*
X157027205Y-77954357D01*
X157027209Y-77954361D01*
X157212736Y-78100881D01*
X157212741Y-78100884D01*
X157216790Y-78104082D01*
X157221306Y-78106575D01*
X157221309Y-78106577D01*
X157428278Y-78220830D01*
X157428282Y-78220832D01*
X157432802Y-78223327D01*
X157437671Y-78225051D01*
X157437675Y-78225053D01*
X157660515Y-78303965D01*
X157660519Y-78303966D01*
X157665390Y-78305691D01*
X157670483Y-78306598D01*
X157670486Y-78306599D01*
X157903217Y-78348055D01*
X157903223Y-78348056D01*
X157908306Y-78348961D01*
X157987676Y-78349931D01*
X158149858Y-78351912D01*
X158149860Y-78351912D01*
X158155028Y-78351975D01*
X158398930Y-78314653D01*
X158633460Y-78237997D01*
X158852321Y-78124065D01*
X158856454Y-78120962D01*
X158856457Y-78120960D01*
X159045501Y-77979022D01*
X159045504Y-77979020D01*
X159049636Y-77975917D01*
X159220104Y-77797532D01*
X159239799Y-77768661D01*
X159356230Y-77597979D01*
X159359149Y-77593700D01*
X159463035Y-77369896D01*
X159528974Y-77132129D01*
X159550500Y-76930708D01*
X159550500Y-76912554D01*
X161549500Y-76912554D01*
X161549712Y-76915127D01*
X161549712Y-76915138D01*
X161564151Y-77090760D01*
X161564152Y-77090766D01*
X161564575Y-77095911D01*
X161624684Y-77335217D01*
X161723072Y-77561493D01*
X161857095Y-77768661D01*
X161860575Y-77772486D01*
X161860577Y-77772488D01*
X161886766Y-77801269D01*
X162023154Y-77951158D01*
X162027205Y-77954357D01*
X162027209Y-77954361D01*
X162212736Y-78100881D01*
X162212741Y-78100884D01*
X162216790Y-78104082D01*
X162221306Y-78106575D01*
X162221309Y-78106577D01*
X162428278Y-78220830D01*
X162428282Y-78220832D01*
X162432802Y-78223327D01*
X162437671Y-78225051D01*
X162437675Y-78225053D01*
X162660515Y-78303965D01*
X162660519Y-78303966D01*
X162665390Y-78305691D01*
X162670483Y-78306598D01*
X162670486Y-78306599D01*
X162903217Y-78348055D01*
X162903223Y-78348056D01*
X162908306Y-78348961D01*
X162987676Y-78349931D01*
X163149858Y-78351912D01*
X163149860Y-78351912D01*
X163155028Y-78351975D01*
X163398930Y-78314653D01*
X163633460Y-78237997D01*
X163852321Y-78124065D01*
X163856454Y-78120962D01*
X163856457Y-78120960D01*
X164045501Y-77979022D01*
X164045504Y-77979020D01*
X164049636Y-77975917D01*
X164220104Y-77797532D01*
X164239799Y-77768661D01*
X164356230Y-77597979D01*
X164359149Y-77593700D01*
X164463035Y-77369896D01*
X164528974Y-77132129D01*
X164550500Y-76930708D01*
X164550500Y-76912554D01*
X166549500Y-76912554D01*
X166549712Y-76915127D01*
X166549712Y-76915138D01*
X166564151Y-77090760D01*
X166564152Y-77090766D01*
X166564575Y-77095911D01*
X166624684Y-77335217D01*
X166723072Y-77561493D01*
X166857095Y-77768661D01*
X166860575Y-77772486D01*
X166860577Y-77772488D01*
X166886766Y-77801269D01*
X167023154Y-77951158D01*
X167027205Y-77954357D01*
X167027209Y-77954361D01*
X167212736Y-78100881D01*
X167212741Y-78100884D01*
X167216790Y-78104082D01*
X167221306Y-78106575D01*
X167221309Y-78106577D01*
X167428278Y-78220830D01*
X167428282Y-78220832D01*
X167432802Y-78223327D01*
X167437671Y-78225051D01*
X167437675Y-78225053D01*
X167660515Y-78303965D01*
X167660519Y-78303966D01*
X167665390Y-78305691D01*
X167670483Y-78306598D01*
X167670486Y-78306599D01*
X167903217Y-78348055D01*
X167903223Y-78348056D01*
X167908306Y-78348961D01*
X167987676Y-78349931D01*
X168149858Y-78351912D01*
X168149860Y-78351912D01*
X168155028Y-78351975D01*
X168398930Y-78314653D01*
X168633460Y-78237997D01*
X168852321Y-78124065D01*
X168856454Y-78120962D01*
X168856457Y-78120960D01*
X169045501Y-77979022D01*
X169045504Y-77979020D01*
X169049636Y-77975917D01*
X169220104Y-77797532D01*
X169239799Y-77768661D01*
X169356230Y-77597979D01*
X169359149Y-77593700D01*
X169463035Y-77369896D01*
X169528974Y-77132129D01*
X169550500Y-76930708D01*
X169550500Y-75187446D01*
X169550288Y-75184862D01*
X169535849Y-75009240D01*
X169535848Y-75009234D01*
X169535425Y-75004089D01*
X169475316Y-74764783D01*
X169376928Y-74538507D01*
X169242905Y-74331339D01*
X169216635Y-74302468D01*
X169190243Y-74273464D01*
X169076846Y-74148842D01*
X169072795Y-74145643D01*
X169072791Y-74145639D01*
X168887264Y-73999119D01*
X168887259Y-73999116D01*
X168883210Y-73995918D01*
X168878694Y-73993425D01*
X168878691Y-73993423D01*
X168671722Y-73879170D01*
X168671718Y-73879168D01*
X168667198Y-73876673D01*
X168662329Y-73874949D01*
X168662325Y-73874947D01*
X168439485Y-73796035D01*
X168439481Y-73796034D01*
X168434610Y-73794309D01*
X168429517Y-73793402D01*
X168429514Y-73793401D01*
X168196783Y-73751945D01*
X168196777Y-73751944D01*
X168191694Y-73751039D01*
X168112324Y-73750069D01*
X167950142Y-73748088D01*
X167950140Y-73748088D01*
X167944972Y-73748025D01*
X167701070Y-73785347D01*
X167466540Y-73862003D01*
X167247679Y-73975935D01*
X167243546Y-73979038D01*
X167243543Y-73979040D01*
X167054499Y-74120978D01*
X167050364Y-74124083D01*
X167046792Y-74127821D01*
X166890068Y-74291824D01*
X166879896Y-74302468D01*
X166876982Y-74306740D01*
X166876981Y-74306741D01*
X166808353Y-74407346D01*
X166740851Y-74506300D01*
X166705654Y-74582125D01*
X166671555Y-74655587D01*
X166636965Y-74730104D01*
X166571026Y-74967871D01*
X166570477Y-74973008D01*
X166556883Y-75100213D01*
X166549500Y-75169292D01*
X166549500Y-76912554D01*
X164550500Y-76912554D01*
X164550500Y-75187446D01*
X164550288Y-75184862D01*
X164535849Y-75009240D01*
X164535848Y-75009234D01*
X164535425Y-75004089D01*
X164475316Y-74764783D01*
X164376928Y-74538507D01*
X164242905Y-74331339D01*
X164216635Y-74302468D01*
X164190243Y-74273464D01*
X164076846Y-74148842D01*
X164072795Y-74145643D01*
X164072791Y-74145639D01*
X163887264Y-73999119D01*
X163887259Y-73999116D01*
X163883210Y-73995918D01*
X163878694Y-73993425D01*
X163878691Y-73993423D01*
X163671722Y-73879170D01*
X163671718Y-73879168D01*
X163667198Y-73876673D01*
X163662329Y-73874949D01*
X163662325Y-73874947D01*
X163439485Y-73796035D01*
X163439481Y-73796034D01*
X163434610Y-73794309D01*
X163429517Y-73793402D01*
X163429514Y-73793401D01*
X163196783Y-73751945D01*
X163196777Y-73751944D01*
X163191694Y-73751039D01*
X163112324Y-73750069D01*
X162950142Y-73748088D01*
X162950140Y-73748088D01*
X162944972Y-73748025D01*
X162701070Y-73785347D01*
X162466540Y-73862003D01*
X162247679Y-73975935D01*
X162243546Y-73979038D01*
X162243543Y-73979040D01*
X162054499Y-74120978D01*
X162050364Y-74124083D01*
X162046792Y-74127821D01*
X161890068Y-74291824D01*
X161879896Y-74302468D01*
X161876982Y-74306740D01*
X161876981Y-74306741D01*
X161808353Y-74407346D01*
X161740851Y-74506300D01*
X161705654Y-74582125D01*
X161671555Y-74655587D01*
X161636965Y-74730104D01*
X161571026Y-74967871D01*
X161570477Y-74973008D01*
X161556883Y-75100213D01*
X161549500Y-75169292D01*
X161549500Y-76912554D01*
X159550500Y-76912554D01*
X159550500Y-75187446D01*
X159550288Y-75184862D01*
X159535849Y-75009240D01*
X159535848Y-75009234D01*
X159535425Y-75004089D01*
X159475316Y-74764783D01*
X159376928Y-74538507D01*
X159242905Y-74331339D01*
X159216635Y-74302468D01*
X159190243Y-74273464D01*
X159076846Y-74148842D01*
X159072795Y-74145643D01*
X159072791Y-74145639D01*
X158887264Y-73999119D01*
X158887259Y-73999116D01*
X158883210Y-73995918D01*
X158878694Y-73993425D01*
X158878691Y-73993423D01*
X158671722Y-73879170D01*
X158671718Y-73879168D01*
X158667198Y-73876673D01*
X158662329Y-73874949D01*
X158662325Y-73874947D01*
X158439485Y-73796035D01*
X158439481Y-73796034D01*
X158434610Y-73794309D01*
X158429517Y-73793402D01*
X158429514Y-73793401D01*
X158196783Y-73751945D01*
X158196777Y-73751944D01*
X158191694Y-73751039D01*
X158112324Y-73750069D01*
X157950142Y-73748088D01*
X157950140Y-73748088D01*
X157944972Y-73748025D01*
X157701070Y-73785347D01*
X157466540Y-73862003D01*
X157247679Y-73975935D01*
X157243546Y-73979038D01*
X157243543Y-73979040D01*
X157054499Y-74120978D01*
X157050364Y-74124083D01*
X157046792Y-74127821D01*
X156890068Y-74291824D01*
X156879896Y-74302468D01*
X156876982Y-74306740D01*
X156876981Y-74306741D01*
X156808353Y-74407346D01*
X156740851Y-74506300D01*
X156705654Y-74582125D01*
X156671555Y-74655587D01*
X156636965Y-74730104D01*
X156571026Y-74967871D01*
X156570477Y-74973008D01*
X156556883Y-75100213D01*
X156549500Y-75169292D01*
X156549500Y-76912554D01*
X154550500Y-76912554D01*
X154550500Y-74450134D01*
X154546411Y-74410723D01*
X154540353Y-74352339D01*
X154540352Y-74352335D01*
X154539641Y-74345481D01*
X154526717Y-74306741D01*
X154486574Y-74186419D01*
X154484256Y-74179471D01*
X154392166Y-74030655D01*
X154268311Y-73907016D01*
X154119334Y-73815186D01*
X154034219Y-73786954D01*
X153959759Y-73762256D01*
X153959757Y-73762255D01*
X153953228Y-73760090D01*
X153849866Y-73749500D01*
X152250134Y-73749500D01*
X152246888Y-73749837D01*
X152246884Y-73749837D01*
X152152339Y-73759647D01*
X152152335Y-73759648D01*
X152145481Y-73760359D01*
X152138945Y-73762540D01*
X152138943Y-73762540D01*
X152043720Y-73794309D01*
X151979471Y-73815744D01*
X151830655Y-73907834D01*
X151707016Y-74031689D01*
X151615186Y-74180666D01*
X151612881Y-74187614D01*
X151612881Y-74187615D01*
X151580501Y-74285237D01*
X151560090Y-74346772D01*
X151549500Y-74450134D01*
X151549500Y-77649866D01*
X137785285Y-77649866D01*
X137785284Y-76352624D01*
X137780888Y-76312152D01*
X137779490Y-76299278D01*
X137779489Y-76299274D01*
X137778636Y-76291420D01*
X137728311Y-76157176D01*
X137722931Y-76149997D01*
X137722929Y-76149994D01*
X137647713Y-76049635D01*
X137642331Y-76042454D01*
X137635150Y-76037072D01*
X137534791Y-75961856D01*
X137534788Y-75961854D01*
X137527609Y-75956474D01*
X137438224Y-75922966D01*
X137400760Y-75908921D01*
X137400758Y-75908921D01*
X137393365Y-75906149D01*
X137385515Y-75905296D01*
X137385514Y-75905296D01*
X137335559Y-75899869D01*
X137335558Y-75899869D01*
X137332162Y-75899500D01*
X136084968Y-75899500D01*
X134837409Y-75899501D01*
X134834015Y-75899870D01*
X134834009Y-75899870D01*
X134784063Y-75905295D01*
X134784059Y-75905296D01*
X134776205Y-75906149D01*
X134641961Y-75956474D01*
X134634782Y-75961854D01*
X134634779Y-75961856D01*
X134534420Y-76037072D01*
X134527239Y-76042454D01*
X134521857Y-76049635D01*
X134446641Y-76149994D01*
X134446639Y-76149997D01*
X134441259Y-76157176D01*
X134390934Y-76291420D01*
X134384285Y-76352623D01*
X123785284Y-76352623D01*
X123780888Y-76312152D01*
X123779490Y-76299278D01*
X123779489Y-76299274D01*
X123778636Y-76291420D01*
X123728311Y-76157176D01*
X123722931Y-76149997D01*
X123722929Y-76149994D01*
X123647713Y-76049635D01*
X123642331Y-76042454D01*
X123635150Y-76037072D01*
X123534791Y-75961856D01*
X123534788Y-75961854D01*
X123527609Y-75956474D01*
X123438224Y-75922966D01*
X123400760Y-75908921D01*
X123400758Y-75908921D01*
X123393365Y-75906149D01*
X123385515Y-75905296D01*
X123385514Y-75905296D01*
X123335559Y-75899869D01*
X123335558Y-75899869D01*
X123332162Y-75899500D01*
X122084968Y-75899500D01*
X120837409Y-75899501D01*
X120834015Y-75899870D01*
X120834009Y-75899870D01*
X120784063Y-75905295D01*
X120784059Y-75905296D01*
X120776205Y-75906149D01*
X120641961Y-75956474D01*
X120634782Y-75961854D01*
X120634779Y-75961856D01*
X120534420Y-76037072D01*
X120527239Y-76042454D01*
X120521857Y-76049635D01*
X120446641Y-76149994D01*
X120446639Y-76149997D01*
X120441259Y-76157176D01*
X120390934Y-76291420D01*
X120384285Y-76352623D01*
X93960888Y-76352623D01*
X94252527Y-76298571D01*
X94252531Y-76298570D01*
X94256092Y-76297910D01*
X94570289Y-76201250D01*
X94871293Y-76069119D01*
X95155116Y-75903266D01*
X95286556Y-75804578D01*
X95415092Y-75708070D01*
X95415096Y-75708067D01*
X95417995Y-75705890D01*
X95455070Y-75670708D01*
X95653813Y-75482109D01*
X95653817Y-75482105D01*
X95656447Y-75479609D01*
X95867310Y-75227419D01*
X95891867Y-75190035D01*
X96045802Y-74955691D01*
X96045807Y-74955682D01*
X96047789Y-74952665D01*
X96169718Y-74710237D01*
X96193866Y-74662225D01*
X96193869Y-74662217D01*
X96195493Y-74658989D01*
X96201745Y-74641905D01*
X96307216Y-74353692D01*
X96307217Y-74353688D01*
X96308464Y-74350281D01*
X96309309Y-74346759D01*
X96309312Y-74346751D01*
X96384357Y-74034165D01*
X96384358Y-74034161D01*
X96385204Y-74030636D01*
X96385641Y-74027026D01*
X96424361Y-73707067D01*
X96424362Y-73707060D01*
X96424697Y-73704288D01*
X96430331Y-73525000D01*
X96420687Y-73357745D01*
X96411617Y-73200436D01*
X96411616Y-73200431D01*
X96411408Y-73196816D01*
X96395267Y-73104335D01*
X96355514Y-72876556D01*
X96355512Y-72876549D01*
X96354890Y-72872983D01*
X96261526Y-72557791D01*
X96132554Y-72255419D01*
X95969682Y-71969875D01*
X95917264Y-71898516D01*
X95777210Y-71707857D01*
X95777208Y-71707855D01*
X95775070Y-71704944D01*
X95623613Y-71541956D01*
X95553757Y-71466782D01*
X95553755Y-71466780D01*
X95551298Y-71464136D01*
X95301331Y-71250643D01*
X95298328Y-71248625D01*
X95298320Y-71248619D01*
X95129235Y-71135000D01*
X95028482Y-71067297D01*
X94736368Y-70916525D01*
X94428860Y-70800328D01*
X94425339Y-70799444D01*
X94425334Y-70799442D01*
X94223336Y-70748704D01*
X94162140Y-70712709D01*
X94130119Y-70649344D01*
X94137439Y-70578726D01*
X94181777Y-70523275D01*
X94254031Y-70500500D01*
X185141659Y-70500500D01*
X185209780Y-70520502D01*
G37*
%TD.AperFunction*%
%TD*%
M02*
