M48
; DRILL file {KiCad (6.0.9)} date Sun Jan 15 10:52:58 2023
; FORMAT={-:-/ absolute / inch / decimal}
; #@! TF.CreationDate,2023-01-15T10:52:58+01:00
; #@! TF.GenerationSoftware,Kicad,Pcbnew,(6.0.9)
; #@! TF.FileFunction,Plated,1,2,PTH
FMAT,2
INCH
; #@! TA.AperFunction,Plated,PTH,ViaDrill
T1C0.0157
; #@! TA.AperFunction,Plated,PTH,ComponentDrill
T2C0.0394
; #@! TA.AperFunction,Plated,PTH,ComponentDrill
T3C0.0472
; #@! TA.AperFunction,Plated,PTH,ComponentDrill
T4C0.0551
; #@! TA.AperFunction,Plated,PTH,ComponentDrill
T5C0.1063
%
G90
G05
T1
X4.0778Y-3.0748
X4.0778Y-3.122
X4.1413Y-3.2713
X4.2469Y-3.0746
X4.248Y-3.1211
X4.4331Y-3.815
X4.4764Y-3.0276
X4.5866Y-3.5079
X4.7244Y-3.5118
X5.165Y-4.7562
X5.1654Y-4.8543
X5.2441Y-3.9606
X5.467Y-3.9705
X5.467Y-4.8307
X5.6457Y-5.0118
X5.7075Y-3.7493
X5.7075Y-3.7993
X5.7075Y-3.8465
X5.7075Y-3.8993
X5.7075Y-4.6095
X5.7075Y-4.6595
X5.7075Y-4.7067
X5.7075Y-4.7595
X5.7913Y-4.1969
X5.9575Y-3.8493
X5.9575Y-4.7095
X6.0075Y-3.7493
X6.0075Y-3.7993
X6.0075Y-3.8493
X6.0075Y-3.8993
X6.0075Y-4.6095
X6.0075Y-4.6595
X6.0075Y-4.7095
X6.0075Y-4.7595
X6.2508Y-4.4417
X6.3496Y-3.8787
X6.5236Y-4.1969
X6.6033Y-3.9626
X6.6033Y-4.8228
X6.7874Y-5.0433
X6.8438Y-3.7414
X6.8438Y-3.7914
X6.8438Y-3.8386
X6.8438Y-3.8914
X6.8438Y-4.6016
X6.8438Y-4.6516
X6.8438Y-4.6988
X6.8438Y-4.7516
X7.0823Y-3.2079
X7.0938Y-3.8414
X7.0938Y-4.7016
X7.1438Y-3.7414
X7.1438Y-3.7914
X7.1438Y-3.8414
X7.1438Y-3.8914
X7.1438Y-4.6016
X7.1438Y-4.6516
X7.1438Y-4.7016
X7.1438Y-4.7516
X7.3866Y-4.4272
T2
X3.7217Y-4.3528
X3.7217Y-4.4528
X3.7217Y-4.5528
X3.7217Y-4.6528
X3.7217Y-4.7528
X3.7217Y-4.8528
X3.7217Y-4.9528
X3.7217Y-5.0528
X4.6217Y-4.3528
X4.6217Y-4.4528
X4.6217Y-4.5528
X4.6217Y-4.6528
X4.6217Y-4.7528
X4.6217Y-4.8528
X4.6217Y-4.9528
X4.6217Y-5.0528
T3
X4.8065Y-3.0551
X5.0033Y-3.0551
X5.3577Y-3.0551
X5.5545Y-3.0551
T4
X3.7677Y-3.3819
X3.7677Y-3.5787
X6.0256Y-2.9941
X6.0276Y-5.312
X6.2224Y-2.9941
X6.2244Y-5.312
X6.4193Y-2.9941
X6.4213Y-5.312
X6.6161Y-2.9941
X6.6181Y-5.312
T5
X3.6654Y-5.4528
X3.6841Y-2.8947
X7.315Y-5.4488
X7.3543Y-2.878
T0
M30
